<?xml version="1.0" encoding="UTF-8" standalone="no"?><!DOCTYPE svg PUBLIC "-//W3C//DTD SVG 1.1//EN" "http://www.w3.org/Graphics/SVG/1.1/DTD/svg11.dtd"><svg width="100%" height="100%" viewBox="0 0 21944 12888" version="1.1" xmlns="http://www.w3.org/2000/svg" xmlns:xlink="http://www.w3.org/1999/xlink" xml:space="preserve" xmlns:serif="http://www.serif.com/" style="fill-rule:evenodd;clip-rule:evenodd;stroke-linecap:round;stroke-miterlimit:10;"><path d="M3449.43,12887.5l-3307.29,-3580.9c-77.742,-84.1 -126.442,-190.937 -138.942,-304.775c-12.5,-113.854 11.858,-228.716 69.496,-327.691l4268.58,-7326.38c57.325,-98.334 137.1,-181.705 232.813,-243.317c95.712,-61.617 204.633,-99.721 317.879,-111.2l9767,-989.583c100.346,-10.138 201.733,0.87 297.567,32.329c95.833,31.458 184.029,82.671 258.854,150.312l6552.08,5920.12c79.688,72.013 135.938,166.338 161.288,270.729c25.345,104.375 18.75,213.975 -19.1,314.513l-2331.77,6195.83l-16128.5,0Z" style="fill:#f4f4f4;fill-rule:nonzero;"/><path d="M10020.6,5592.75c0,0 160.938,22.046 900,6.771c200,121.525 1066.67,44.271 1408.33,11.979c394.966,73.263 590.279,-118.058 414.758,-221.354c-53.992,-31.946 -143.404,-55.383 -273.092,-60.246c8.509,-411.108 -1008.33,-546.004 -1291.67,53.821c-149.825,-121.529 -462.671,-110.242 -483.334,54.167c-289.233,-53.125 -517.708,6.771 -622.396,69.446c-55.554,32.983 -76.212,66.837 -52.604,85.416Z" style="fill:#fff;fill-rule:nonzero;"/><path d="M10020.6,5592.7c0,-0 160.938,22.05 900,6.77c200,121.53 1066.67,44.271 1408.33,11.98c394.966,73.266 590.279,-118.055 414.758,-221.355c1.387,25.713 -7.342,50.959 -24.304,70.313c-40.104,45.833 -115.625,64.933 -184.55,59.029c-67.084,-8.054 -131.788,-29.792 -190.104,-63.887c-26.925,-17.467 -57.1,-29.271 -88.717,-34.725c-58.504,-5.73 -109.025,31.25 -150.171,65.454c-34.725,-54.863 -119.967,-84.55 -192.187,-66.496c-72.225,18.058 -121.53,82.121 -111.98,142.883c-141.495,-25.346 -285.766,42.363 -429.862,31.596c-164.408,-12.5 -312.5,-125.171 -473.958,-96.525c-40.8,7.117 -78.471,23.263 -119.446,30.033c-40.675,4.759 -81.7,5.867 -122.567,3.3c-131.771,-2.433 -263.542,14.409 -394.967,7.813c-63.8,-2.621 -127.012,-13.179 -188.195,-31.425c-55.034,32.812 -75.692,66.667 -52.084,85.242Z" style="fill:#21252b;fill-opacity:0.08;fill-rule:nonzero;"/><rect x="4455.34" y="4539.75" width="3667.71" height="7157.46" style="fill:#e6e6e6;"/><rect x="5122.17" y="4539.75" width="3000.87" height="7157.46" style="fill:#f0f0f0;"/><rect x="4412.29" y="4539.75" width="3789.58" height="116.842" style="fill:#e0e0e0;"/><rect x="4412.29" y="4306.08" width="3789.58" height="116.842" style="fill:#e0e0e0;"/><rect x="4492.13" y="4422.91" width="3631.08" height="116.842" style="fill:#f0f0f0;"/><rect x="7274.79" y="4961.29" width="563.542" height="563.542" style="fill:#e6e6e6;"/><rect x="7274.79" y="4961.29" width="513.888" height="563.542" style="fill:#f5f5f5;"/><rect x="6420.96" y="4961.29" width="563.717" height="563.542" style="fill:#e6e6e6;"/><rect x="6421.13" y="4961.29" width="513.908" height="563.542" style="fill:#f5f5f5;"/><rect x="5567.5" y="4961.29" width="563.717" height="563.542" style="fill:#e6e6e6;"/><rect x="5567.67" y="4961.29" width="513.888" height="563.542" style="fill:#f5f5f5;"/><rect x="7274.79" y="5791.16" width="563.542" height="563.542" style="fill:#e6e6e6;"/><rect x="7274.79" y="5791.16" width="513.888" height="563.542" style="fill:#f5f5f5;"/><rect x="6420.96" y="5791.16" width="563.717" height="563.542" style="fill:#e6e6e6;"/><rect x="6421.13" y="5791.16" width="513.908" height="563.542" style="fill:#f5f5f5;"/><rect x="5567.5" y="5791.16" width="563.717" height="563.542" style="fill:#e6e6e6;"/><rect x="5567.67" y="5791.16" width="513.888" height="563.542" style="fill:#f5f5f5;"/><rect x="7274.79" y="7310.95" width="563.542" height="563.717" style="fill:#e6e6e6;"/><rect x="7274.79" y="7310.95" width="513.888" height="563.717" style="fill:#f5f5f5;"/><rect x="6420.96" y="7310.95" width="563.717" height="563.717" style="fill:#e6e6e6;"/><rect x="6421.13" y="7310.95" width="513.908" height="563.717" style="fill:#f5f5f5;"/><rect x="5567.5" y="7310.95" width="563.717" height="563.717" style="fill:#e6e6e6;"/><rect x="5567.67" y="7310.95" width="513.888" height="563.717" style="fill:#f5f5f5;"/><rect x="7274.79" y="8140.83" width="563.542" height="563.717" style="fill:#e6e6e6;"/><rect x="7274.79" y="8140.83" width="513.888" height="563.717" style="fill:#f5f5f5;"/><rect x="6420.96" y="8140.83" width="563.717" height="563.717" style="fill:#e6e6e6;"/><rect x="6421.13" y="8140.83" width="513.908" height="563.717" style="fill:#f5f5f5;"/><rect x="5567.5" y="8140.83" width="563.717" height="563.717" style="fill:#e6e6e6;"/><rect x="5567.67" y="8140.83" width="513.888" height="563.717" style="fill:#f5f5f5;"/><rect x="7274.79" y="9829.87" width="563.542" height="563.717" style="fill:#e6e6e6;"/><rect x="7274.79" y="9829.87" width="513.888" height="563.717" style="fill:#f5f5f5;"/><rect x="6420.96" y="9829.87" width="563.717" height="563.717" style="fill:#e6e6e6;"/><rect x="6421.13" y="9829.87" width="513.908" height="563.717" style="fill:#f5f5f5;"/><rect x="5567.5" y="9829.87" width="563.717" height="563.717" style="fill:#e6e6e6;"/><rect x="5567.67" y="9829.87" width="513.888" height="563.717" style="fill:#f5f5f5;"/><rect x="7274.79" y="10659.9" width="563.542" height="563.717" style="fill:#e6e6e6;"/><rect x="7274.79" y="10659.9" width="513.888" height="563.717" style="fill:#f5f5f5;"/><rect x="6420.96" y="10659.9" width="563.717" height="563.717" style="fill:#e6e6e6;"/><rect x="6421.13" y="10659.9" width="513.908" height="563.717" style="fill:#f5f5f5;"/><rect x="5567.5" y="10659.9" width="563.717" height="563.717" style="fill:#e6e6e6;"/><rect x="5567.67" y="10659.9" width="513.888" height="563.717" style="fill:#f5f5f5;"/><rect x="4455.34" y="6751.04" width="3667.71" height="52.083" style="fill:#e0e0e0;"/><rect x="4455.34" y="9348.95" width="3667.71" height="52.083" style="fill:#e0e0e0;"/><rect x="12391.1" y="6637.66" width="2536.63" height="6172.58" style="fill:#e0e0e0;"/><rect x="12391.1" y="6637.66" width="1814.24" height="6172.58" style="fill:#f0f0f0;"/><rect x="12578.1" y="7144.95" width="675.175" height="327.779" style="fill:#e6e6e6;"/><rect x="12623" y="7144.95" width="630.208" height="327.779" style="fill:#f5f5f5;"/><rect x="13359" y="7144.95" width="675.175" height="327.779" style="fill:#e6e6e6;"/><rect x="13404" y="7144.95" width="630.208" height="327.779" style="fill:#f5f5f5;"/><rect x="12578.1" y="7761.83" width="675.175" height="327.779" style="fill:#e6e6e6;"/><rect x="12623" y="7761.83" width="630.208" height="327.779" style="fill:#f5f5f5;"/><rect x="13359" y="7761.83" width="675.175" height="327.779" style="fill:#e6e6e6;"/><rect x="13404" y="7761.83" width="630.208" height="327.779" style="fill:#f5f5f5;"/><rect x="12578.1" y="8550.37" width="675.175" height="327.779" style="fill:#e6e6e6;"/><rect x="12623" y="8550.37" width="630.208" height="327.779" style="fill:#f5f5f5;"/><rect x="13359" y="8550.37" width="675.175" height="327.779" style="fill:#e6e6e6;"/><rect x="13404" y="8550.37" width="630.208" height="327.779" style="fill:#f5f5f5;"/><rect x="12578.1" y="9003.29" width="675.175" height="327.779" style="fill:#e6e6e6;"/><rect x="12623" y="9003.29" width="630.208" height="327.779" style="fill:#f5f5f5;"/><rect x="13359" y="9003.29" width="675.175" height="327.779" style="fill:#e6e6e6;"/><rect x="13404" y="9003.29" width="630.208" height="327.779" style="fill:#f5f5f5;"/><rect x="12578.1" y="9747.58" width="675.175" height="327.779" style="fill:#e6e6e6;"/><rect x="12623" y="9747.58" width="630.208" height="327.779" style="fill:#f5f5f5;"/><rect x="13359" y="9747.58" width="675.175" height="327.779" style="fill:#e6e6e6;"/><rect x="13404" y="9747.58" width="630.208" height="327.779" style="fill:#f5f5f5;"/><rect x="12578.1" y="10200.7" width="675.175" height="327.779" style="fill:#e6e6e6;"/><rect x="12623" y="10200.7" width="630.208" height="327.779" style="fill:#f5f5f5;"/><rect x="13359" y="10200.7" width="675.175" height="327.779" style="fill:#e6e6e6;"/><rect x="13404" y="10200.7" width="630.208" height="327.779" style="fill:#f5f5f5;"/><rect x="12578.1" y="11010.6" width="675.175" height="327.779" style="fill:#e6e6e6;"/><rect x="12623" y="11010.6" width="630.208" height="327.779" style="fill:#f5f5f5;"/><rect x="13359" y="11010.6" width="675.175" height="327.779" style="fill:#e6e6e6;"/><rect x="13404" y="11010.6" width="630.208" height="327.779" style="fill:#f5f5f5;"/><rect x="12578.1" y="11608.9" width="675.175" height="327.779" style="fill:#e6e6e6;"/><rect x="12623" y="11608.9" width="630.208" height="327.779" style="fill:#f5f5f5;"/><rect x="13359" y="11608.9" width="675.175" height="327.779" style="fill:#e6e6e6;"/><rect x="13404" y="11608.9" width="630.208" height="327.779" style="fill:#f5f5f5;"/><rect x="12391.1" y="8291.66" width="2536.63" height="56.425" style="fill-opacity:0.05;"/><rect x="12391.1" y="9511.12" width="2536.63" height="56.425" style="fill-opacity:0.05;"/><rect x="12391.1" y="10741.3" width="2536.63" height="56.425" style="fill-opacity:0.05;"/><rect x="12271.7" y="6455.04" width="2656.08" height="197.221" style="fill:#e0e0e0;"/><rect x="14320.8" y="6455.04" width="606.946" height="197.221" style="fill-opacity:0.05;"/><path d="M18798,4791.66l-0,6764.42l-343.229,977.083l-2635.42,-0l0,-7741.5l2978.65,-0Z" style="fill:#e6e6e6;fill-rule:nonzero;"/><rect x="14716.6" y="4791.66" width="2978.82" height="7741.67" style="fill:#f0f0f0;"/><rect x="14976.5" y="5317.16" width="2459.03" height="394.271" style="fill:#e6e6e6;"/><rect x="15072" y="5317.16" width="2363.54" height="394.271" style="fill:#f5f5f5;"/><rect x="14976.5" y="5980.91" width="2459.03" height="394.271" style="fill:#e6e6e6;"/><rect x="15072" y="5980.91" width="2363.54" height="394.271" style="fill:#f5f5f5;"/><rect x="14976.5" y="6670.83" width="2459.03" height="394.271" style="fill:#e6e6e6;"/><rect x="15072" y="6670.83" width="2363.54" height="394.271" style="fill:#f5f5f5;"/><rect x="14976.5" y="7360.58" width="2459.03" height="394.271" style="fill:#e6e6e6;"/><rect x="15072" y="7360.58" width="2363.54" height="394.271" style="fill:#f5f5f5;"/><rect x="14976.5" y="8050.54" width="2459.03" height="394.271" style="fill:#e6e6e6;"/><rect x="15072" y="8050.54" width="2363.54" height="394.271" style="fill:#f5f5f5;"/><rect x="14976.5" y="8740.25" width="2459.03" height="394.271" style="fill:#e6e6e6;"/><rect x="15072" y="8740.25" width="2363.54" height="394.271" style="fill:#f5f5f5;"/><rect x="14976.5" y="9500.54" width="2459.03" height="394.271" style="fill:#e6e6e6;"/><rect x="15072" y="9500.54" width="2363.54" height="394.271" style="fill:#f5f5f5;"/><rect x="14976.5" y="10261" width="2459.03" height="394.271" style="fill:#e6e6e6;"/><rect x="15072" y="10261" width="2363.54" height="394.271" style="fill:#f5f5f5;"/><rect x="14976.5" y="11021.2" width="2459.03" height="394.271" style="fill:#e6e6e6;"/><rect x="15072" y="11021.2" width="2363.54" height="394.271" style="fill:#f5f5f5;"/><rect x="14976.5" y="11781.4" width="2459.03" height="394.271" style="fill:#e6e6e6;"/><rect x="15072" y="11781.4" width="2363.54" height="394.271" style="fill:#f5f5f5;"/><rect x="14632.4" y="4713.7" width="4243.04" height="188.887" style="fill:#e0e0e0;"/><rect x="14632.4" y="4372.95" width="4243.04" height="188.887" style="fill:#e0e0e0;"/><rect x="14716.6" y="4524.83" width="4017.88" height="188.887" style="fill:#f0f0f0;"/><rect x="17968" y="5317" width="830.033" height="394.446" style="fill:#e0e0e0;"/><rect x="17968" y="5966.16" width="830.033" height="394.446" style="fill:#e0e0e0;"/><rect x="17968" y="6615.29" width="830.033" height="394.446" style="fill:#e0e0e0;"/><rect x="17968" y="7360.58" width="830.033" height="394.446" style="fill:#e0e0e0;"/><rect x="17968" y="8050.37" width="830.033" height="394.446" style="fill:#e0e0e0;"/><rect x="17968" y="8740.25" width="830.033" height="394.446" style="fill:#e0e0e0;"/><rect x="17968" y="9500.54" width="830.033" height="394.446" style="fill:#e0e0e0;"/><rect x="17968" y="10260.7" width="830.033" height="394.446" style="fill:#e0e0e0;"/><rect x="17968" y="11021" width="830.033" height="394.446" style="fill:#e0e0e0;"/><path d="M21732.3,6063.37l-20.833,-18.925c-350.521,210.592 -499.654,577.084 -499.654,577.084c-160.242,-189.409 -471.875,-507.638 -692.534,-416.667c-308.854,128.471 135.763,589.062 135.763,589.062c-1057.12,348.263 -876.213,1098.09 -876.213,1098.09c-106.6,-101.217 -233.854,-166.496 -381.945,-151.912c-524.655,52.083 -156.25,733.854 -156.25,733.854c-1941.84,-213.367 -2062.32,1052.08 -2062.32,1052.08c-0,0 -222.571,-804.337 -492.538,-756.596c-269.962,47.742 -123.262,911.284 -123.262,911.284c-0,-0 -175.175,-518.23 -502.259,-415.45c-327.083,102.779 0,864.062 0,864.062c-954.858,38.196 -777.604,572.917 -777.604,572.917c-191.146,-88.959 -399.479,-134.425 -610.242,-133.159c-714.062,-2.779 -856.595,412.846 -881.075,515.971l-16.32,-15.104c-98.959,-250.346 -657.638,-520.833 -1039.58,-552.258c-106.7,-8.75 -213.821,-11.525 -320.833,-8.334c-97.238,-3.191 -194.6,-0.395 -291.492,8.334c-131.683,15.125 -260.4,49.708 -381.946,102.604c-226.337,70.625 -440.883,174.55 -636.633,308.333c-86.804,-157.637 -285.762,-361.458 -740.625,-359.546c-192.758,-0.904 -382.862,44.775 -554.167,133.159c0,-0 161.459,-535.417 -706.25,-572.917c0,0 297.05,-761.283 0,-864.062c-297.045,-102.78 -454.337,416.32 -454.337,416.32c-0,0 133.504,-863.541 -111.808,-911.287c-245.313,-47.742 -447.396,756.6 -447.396,756.6c-0,-0 -109.375,-1265.45 -1873.26,-1052.08c0,-0 335.071,-682.121 -141.321,-733.855c-134.025,-14.583 -249.479,50.692 -346.354,151.909c0,-0 164.413,-749.825 -795.833,-1098.09c-0,0 403.821,-460.587 123.267,-589.062c-200.35,-91.838 -483.509,225.695 -628.996,416.666c-0,0 -231.075,-516.837 -734.025,-699.479c-1710.94,-622.221 -1606.77,2034.03 -1606.77,2034.03c-1701.39,-190.971 -2157.47,1002.6 -1979.17,1302.08l1649.3,1789.93l1657.99,1795.14l16128.5,0l2331.25,-6195.5c37.846,-100.554 44.446,-210.154 19.096,-314.529c-25.346,-104.375 -81.596,-198.716 -161.283,-270.712l0.012,0.012Z" style="fill:#d9dcde;fill-rule:nonzero;"/><path d="M21182.8,8486.62c-305.033,158.509 -374.304,393.054 -374.304,393.054c-190.975,17.538 -373.612,87.467 -527.433,202.084c-412.846,314.412 -121.525,727.258 -121.525,727.258c-128.996,-101.217 -342.017,-185.762 -642.363,-43.229c-359.375,170.137 -262.846,585.937 -262.846,585.937c-1438.37,-343.575 -1729.52,749.305 -1729.52,749.305c-610.242,89.583 -453.471,431.945 -453.471,431.945c-1716.49,-169.27 -1625.7,860.242 -1625.7,860.242c-26.042,-138.887 -117.012,-277.775 -268.75,-282.117c-300.867,-8.508 -219.271,312.5 -219.271,312.5c0,0 -430.033,-494.445 -770.312,-338.366c-306.771,140.796 -189.063,659.721 -163.542,758.854l5519.46,-0l1639.58,-4357.46l-0.013,-0.009Z" style="fill:#afb3b8;fill-rule:nonzero;"/><path d="M3414.71,12844.1l7974.5,0c235.241,-972.225 -530.559,-920.141 -935.767,-412.329c111.112,-331.075 -393.054,-483.679 -488.192,-29.858c0,-0 90.796,-1029.52 -1625.7,-860.246c0,-0 101.217,-824.304 -766.841,-407.638c-0,0 -0,-937.5 -1284.72,-381.945c138.887,-442.188 -1034.2,-757.638 -1475.7,-416.667c268.404,-355.9 381.946,-1406.25 -781.25,-1006.94c0,0 -172.046,-454.166 -520.833,-555.558c-329.859,-96.004 -827.254,152.433 -1180.55,416.667c-526.217,-790.45 -1484.03,-316.492 -1614.58,208.333c-114.583,145.662 -87.846,253.821 -96.7,419.1l2796.35,3027.08l-0.02,0Z" style="fill:#afb3b8;fill-rule:nonzero;"/><path d="M8903.25,9405.2c-61.979,1026.22 22.221,2112.35 -30.383,3139.78l366.492,47.379l14.583,-209.375l2.779,1.041c69.446,-972.22 254.513,-2016.14 345.138,-2990.8l-698.609,11.98Z" style="fill:#fc9d9d;fill-rule:nonzero;"/><path d="M9282.09,12078.3l-394.096,-0c-2.604,156.25 -7.117,312.5 -15.104,466.666l170.658,22.05l198.787,-17.362l11.63,-167.188l2.779,1.042c7.291,-101.042 16.146,-202.95 25.696,-305.379l-0.35,0.171Z" style="fill:#fff;fill-rule:nonzero;"/><path d="M8865.42,12407.7l-1.213,36.112c-0.312,30.73 -5.833,61.196 -16.32,90.105l-44.967,126.212c-12.396,35.729 -18.729,73.283 -18.75,111.113l-0,6.25c0.208,6.162 1.633,12.237 4.204,17.845c2.567,5.625 6.233,10.663 10.779,14.846c4.534,4.184 9.863,7.429 15.663,9.529c5.812,2.121 11.979,3.038 18.141,2.746l448.609,0c12.396,0.363 24.462,-4.133 33.579,-12.537c9.112,-8.4 14.583,-20.05 15.208,-32.429l0,-16.146c0,-32.709 -5.087,-65.225 -15.104,-96.354l-38.717,-128.646c-8.487,-26.25 -12.708,-53.679 -12.5,-81.25l0,-47.396c-0.225,-29.846 -11.841,-58.471 -32.466,-80.033l-6.25,-7.467c-41.179,-41.946 -97.292,-65.867 -156.059,-66.596c-58.783,-0.712 -115.45,21.854 -157.654,62.775l-11.112,11.288c-20.904,21.595 -33.35,50 -35.071,80.033Z" style="fill:#969696;fill-rule:nonzero;"/><path d="M8784.17,12742.5l544.967,-0c1.008,6.196 1.425,12.483 1.216,18.75l0,16.146c-0.191,6.179 -1.616,12.254 -4.183,17.862c-2.588,5.609 -6.233,10.663 -10.783,14.846c-4.55,4.183 -9.88,7.429 -15.675,9.529c-5.8,2.1 -11.963,3.038 -18.146,2.725l-448.609,0c-12.395,0.384 -24.445,-4.112 -33.579,-12.516c-9.112,-8.4 -14.562,-20.05 -15.208,-32.446l-0,-34.896Z" style="fill-opacity:0.6;fill-rule:nonzero;"/><path d="M9161.59,12427.6c1.108,-2.708 1.212,-5.708 0.295,-8.487c-0.92,-2.779 -2.812,-5.121 -5.333,-6.617c-28.975,-14.183 -60.796,-21.562 -93.054,-21.562c-32.258,-0 -64.079,7.379 -93.054,21.562c-1.338,0.646 -2.538,1.546 -3.509,2.675c-0.987,1.113 -1.737,2.413 -2.204,3.821c-0.471,1.404 -0.641,2.9 -0.537,4.375c0.121,1.475 0.537,2.917 1.212,4.233c0.625,1.338 1.513,2.521 2.625,3.509c1.092,0.97 2.375,1.72 3.767,2.187c1.387,0.471 2.862,0.658 4.337,0.538c1.459,-0.105 2.9,-0.521 4.205,-1.196c25.762,-12.259 53.941,-18.613 82.462,-18.613c28.525,0 56.704,6.354 82.467,18.613c1.491,0.954 3.262,1.387 5.033,1.212c2.258,0 4.463,-0.571 6.442,-1.666c1.979,-1.092 3.646,-2.671 4.846,-4.584Z" style="fill:#fff;fill-rule:nonzero;"/><path d="M9161.59,12485.1c1.108,-2.692 1.212,-5.675 0.275,-8.421c-0.917,-2.742 -2.813,-5.05 -5.313,-6.509c-28.937,-14.27 -60.779,-21.7 -93.054,-21.7c-32.275,0 -64.113,7.43 -93.054,21.7c-2.642,1.3 -4.671,3.613 -5.609,6.425c-0.937,2.792 -0.745,5.85 0.571,8.505c1.321,2.641 3.629,4.654 6.425,5.608c2.796,0.937 5.867,0.729 8.509,-0.571c25.745,-12.329 53.92,-18.733 82.462,-18.733c28.542,-0 56.721,6.404 82.467,18.733c1.491,0.938 3.262,1.371 5.033,1.213c2.258,-0.017 4.479,-0.588 6.442,-1.684c1.979,-1.091 3.646,-2.654 4.846,-4.566Z" style="fill:#fff;fill-rule:nonzero;"/><path d="M9161.59,12541.3c1.108,-2.709 1.212,-5.713 0.295,-8.488c-0.92,-2.779 -2.812,-5.121 -5.333,-6.617c-28.975,-14.183 -60.796,-21.562 -93.054,-21.562c-32.258,-0 -64.079,7.379 -93.054,21.562c-1.338,0.642 -2.538,1.546 -3.509,2.659c-0.987,1.129 -1.737,2.429 -2.204,3.837c-0.471,1.404 -0.641,2.879 -0.537,4.375c0.121,1.475 0.537,2.917 1.212,4.234c0.625,1.32 1.513,2.516 2.625,3.491c1.092,0.988 2.375,1.734 3.767,2.204c1.387,0.467 2.862,0.642 4.337,0.538c1.459,-0.121 2.9,-0.521 4.205,-1.196c25.762,-12.258 53.941,-18.612 82.462,-18.612c28.525,-0 56.704,6.354 82.467,18.612c1.491,0.954 3.262,1.371 5.033,1.213c2.258,-0 4.463,-0.588 6.442,-1.684c1.979,-1.075 3.646,-2.654 4.846,-4.566Z" style="fill:#fff;fill-rule:nonzero;"/><path d="M11010.2,12581.6l-295.138,-221.704c-23.575,-18.229 -43.021,-41.25 -57.029,-67.567c-14.013,-26.304 -22.258,-55.295 -24.221,-85.037l46.529,-2080.21c0,-11.284 0,-22.396 -1.041,-33.68l-52.084,-704.166l-729.166,81.596l134.545,809.029l0,17.362c-16.02,342.55 9.046,685.796 74.655,1022.4l11.112,57.638c38.367,201.216 83.158,470.137 113.192,717.883l38.716,467.879l739.93,18.579Z" style="fill:#fc9d9d;fill-rule:nonzero;"/><path d="M10232.6,12094.7l38.716,467.883l738.888,19.096l-295.138,-221.7c-23.575,-18.229 -43.021,-41.271 -57.029,-67.571c-14.012,-26.321 -22.258,-55.296 -24.221,-85.033l9.896,-128.996l-411.283,16.321" style="fill:#fff;fill-rule:nonzero;"/><path d="M10298.4,12297.2c7.117,82.813 123.092,135.763 201.042,167.013l111.458,44.271l-339.408,37.154l-34.725,-412.5c-29.858,-258.163 -77.254,-544.621 -117.708,-756.425l-11.109,-57.638c-65.608,-336.6 -90.679,-679.846 -74.654,-1022.4l0,-17.362l-82.117,-568.925l138.888,-17.358l69.446,572.916c-0,0 -52.084,659.721 60.416,1174.13c0,0 45.138,416.667 69.442,693.059c3.821,44.441 6.946,85.241 9.375,119.962l-0.346,44.1Z" style="fill-opacity:0.15;fill-rule:nonzero;"/><path d="M10265.6,12391l165.47,52.083c11.838,3.696 24.425,4.304 36.58,1.787c12.15,-2.516 23.454,-8.091 32.862,-16.2l130.713,-111.458c14.27,-12.237 32.345,-19.183 51.129,-19.617c18.8,-0.45 37.171,5.625 51.996,17.188l295.137,228.992l232.658,76.737c33.405,11.321 62.43,32.758 83.071,61.371c20.625,28.596 31.825,62.917 32.034,98.179c-0.055,9.842 -3.975,19.271 -10.938,26.229c-6.962,6.963 -16.387,10.888 -26.233,10.921l-1031.25,0c-11.667,0.054 -23.229,-2.204 -34.029,-6.65c-10.78,-4.442 -20.588,-10.971 -28.855,-19.217c-8.262,-8.245 -14.808,-18.037 -19.27,-28.82c-4.459,-10.78 -6.75,-22.342 -6.734,-34.025l0,-303.821c0.121,-5.471 1.475,-10.867 3.992,-15.729c2.517,-4.88 6.129,-9.096 10.537,-12.363c4.413,-3.246 9.517,-5.45 14.913,-6.421c5.4,-0.975 10.958,-0.679 16.217,0.834Z" style="fill:#969696;fill-rule:nonzero;"/><path d="M10221.1,12742.4l1151.22,0c3.471,12.067 5.121,24.584 4.862,37.154c-0.054,9.825 -3.975,19.255 -10.937,26.217c-6.963,6.958 -16.371,10.883 -26.217,10.938l-1031.25,-0c-21.041,-0.055 -41.387,-7.521 -57.429,-21.13c-16.042,-13.595 -26.754,-32.433 -30.246,-53.179Z" style="fill-opacity:0.6;fill-rule:nonzero;"/><path d="M10735.5,12433l62.5,-67.187c1.667,-1.804 2.587,-4.167 2.587,-6.596c0,-2.45 -0.92,-4.808 -2.587,-6.6c-1.754,-1.75 -4.133,-2.725 -6.6,-2.725c-2.463,-0 -4.842,0.975 -6.596,2.725l-62.5,67.187c-1.65,1.792 -2.587,4.15 -2.587,6.6c-0,2.43 0.937,4.792 2.587,6.596c1.667,1.529 3.821,2.379 6.075,2.429c2.538,-0.225 4.983,-1.058 7.121,-2.429Z" style="fill:#fff;fill-rule:nonzero;"/><path d="M10784.5,12470.8l62.325,-67.188c1.738,-1.754 2.725,-4.112 2.725,-6.596c0,-2.466 -0.987,-4.825 -2.725,-6.596c-1.787,-1.65 -4.15,-2.57 -6.596,-2.57c-2.45,-0 -4.791,0.92 -6.6,2.57l-62.325,67.188c-1.737,1.75 -2.708,4.129 -2.708,6.596c0,2.483 0.971,4.841 2.708,6.596c1.596,1.529 3.717,2.395 5.905,2.433c2.587,-0.246 5.087,-1.079 7.291,-2.433Z" style="fill:#fff;fill-rule:nonzero;"/><path d="M10834,12509.7l62.325,-67.187c1.738,-1.771 2.709,-4.134 2.709,-6.6c-0,-2.479 -0.971,-4.842 -2.709,-6.596c-1.804,-1.667 -4.15,-2.588 -6.596,-2.588c-2.45,0 -4.808,0.921 -6.6,2.588l-62.325,67.187c-1.737,1.755 -2.708,4.117 -2.708,6.596c0,2.467 0.971,4.829 2.708,6.6c1.617,1.475 3.717,2.342 5.905,2.429c2.654,0.159 5.258,-0.712 7.291,-2.429Z" style="fill:#fff;fill-rule:nonzero;"/><path d="M9631.21,9745.16l-791.667,-1.217l45.658,-1053.3c4.654,-107.046 1.234,-214.304 -10.241,-320.833c-23.092,-216.146 -17.363,-412.846 -5.384,-647.567l22.571,-112.5l1568.4,167.359l214.409,1854.69l-787.675,81.6l-161.805,-1061.98l-94.27,1093.75Z" style="fill:#21252b;fill-rule:nonzero;"/><path d="M9742.84,8668.91l-17.363,-0.346l8.679,-779.167l85.592,0l-0,472.917l-51.738,102.083l-15.625,-7.987l50,-98.263l0,-451.391l-50.866,-0l-8.679,762.154Z" style="fill-opacity:0.3;fill-rule:nonzero;"/><path d="M8981.54,9745.16l39.237,-739.583c5.992,-105.521 5.992,-211.321 0,-316.842c-15.987,-267.342 -6.754,-535.608 27.605,-801.217l-190.971,-138.887l-0,243.054c-7.813,117.187 3.125,197.571 9.546,314.933c21.495,188.263 27.291,377.967 17.362,567.188l-44.271,871.354l141.492,-0Z" style="fill-opacity:0.3;fill-rule:nonzero;"/><path d="M10456.2,8180.37c-164.759,-151.041 -210.592,-364.583 -211.113,-365.8l17.363,-3.471c-0,2.084 45.312,208.334 205.904,356.425l-12.154,12.846Z" style="fill-opacity:0.3;fill-rule:nonzero;"/><path d="M9887.29,9713.37l114.062,-17.362l-154.337,-929.688c-19.792,-141.321 -121.529,-97.571 -121.529,-97.571l161.804,1044.62Z" style="fill-opacity:0.3;fill-rule:nonzero;"/><path d="M8628.96,6490.95l17.358,-165.28l144.429,531.771l52.083,1040.62l464.409,31.425c401.562,29.563 804.929,-23.146 1185.42,-154.862c-32.637,-701.563 -156.25,-1639.76 -156.25,-1639.76l-43.212,-289.062l555.558,-277.775l-225.696,-524.308l-249.304,56.945c-115.625,14.584 -391.841,67.363 -391.841,67.363l-459.392,20.312l-577.433,-26.041l-616.317,220.312c-202.258,101.042 -202.242,390.104 -202.242,390.104l-55.05,659.721l557.484,58.509Z" style="fill:#969696;fill-rule:nonzero;"/><path d="M8639.71,8295.45l-60.071,-998.263l-2.604,1.213l-19.617,-310.938l36.804,-496.525l-487.846,-56.946l-6.946,517.709c-2.829,34.929 -0.12,70.087 7.988,104.166l74.479,435.417l225.692,868.054l232.121,-63.887Z" style="fill:#fc9d9d;fill-rule:nonzero;"/><path d="M11445.8,4992.75c-207.292,-318.404 -1151.22,-783.333 -1151.22,-783.333l-187.15,153.817l741.838,629.516l-225.692,52.084l225.692,524.304l443.925,-221.529c247.05,-123.263 152.604,-354.859 152.604,-354.859Z" style="fill:#fc9d9d;fill-rule:nonzero;"/><path d="M8871.21,8640.5l-575.346,-138.766c-8.109,-1.963 -16.267,3.02 -18.213,11.145l-66.196,274.409c-1.945,8.108 3.038,16.266 11.146,18.229l575.346,138.767c8.108,1.962 16.267,-3.038 18.213,-11.146l66.195,-274.425c1.946,-8.109 -3.037,-16.267 -11.145,-18.213Z" style="fill:#21252b;fill-rule:nonzero;"/><path d="M8871.21,8640.5l-575.346,-138.766c-8.109,-1.963 -16.267,3.02 -18.213,11.145l-66.196,274.409c-1.945,8.108 3.038,16.266 11.146,18.229l575.346,138.767c8.108,1.962 16.267,-3.038 18.213,-11.146l66.195,-274.425c1.946,-8.109 -3.037,-16.267 -11.145,-18.213Z" style="fill-opacity:0.3;fill-rule:nonzero;"/><path d="M8851.59,8635.45l-575.35,-138.767c-8.109,-1.963 -16.267,3.021 -18.213,11.146l-66.196,274.408c-1.946,8.108 3.038,16.267 11.146,18.229l575.346,138.767c8.108,1.962 16.267,-3.038 18.229,-11.146l66.183,-274.425c1.959,-8.108 -3.041,-16.271 -11.145,-18.212Z" style="fill:#21252b;fill-rule:nonzero;"/><path d="M8812.46,8689.58c3.679,-3.455 5.991,-8.105 6.491,-13.105c0.504,-5.02 -0.812,-10.054 -3.712,-14.15c-1.475,-1.891 -3.3,-3.454 -5.4,-4.6c-2.1,-1.145 -4.409,-1.858 -6.788,-2.066c-2.379,-0.209 -4.775,0.066 -7.05,0.833c-2.258,0.746 -4.341,1.963 -6.112,3.575c-3.729,3.421 -6.042,8.092 -6.525,13.125c-0.488,5.033 0.921,10.054 3.921,14.133c1.458,1.859 3.283,3.4 5.366,4.53c2.084,1.129 4.375,1.808 6.738,2.033c2.341,0.208 4.721,-0.071 6.979,-0.817c2.237,-0.729 4.321,-1.929 6.092,-3.491Z" style="fill-opacity:0.4;fill-rule:nonzero;"/><path d="M8815.92,8691.33c3.787,-3.384 6.167,-8.055 6.687,-13.092c0.5,-5.05 -0.887,-10.104 -3.908,-14.167c-1.458,-1.854 -3.279,-3.4 -5.362,-4.529c-2.084,-1.129 -4.375,-1.825 -6.738,-2.033c-2.362,-0.225 -4.742,0.054 -6.979,0.8c-2.258,0.746 -4.325,1.929 -6.096,3.508c-3.679,3.438 -5.987,8.088 -6.492,13.108c-0.52,5 0.8,10.034 3.717,14.146c1.458,1.859 3.296,3.404 5.363,4.534c2.083,1.129 4.375,1.82 6.737,2.029c2.363,0.208 4.738,-0.067 6.979,-0.796c2.259,-0.746 4.321,-1.946 6.092,-3.508Z" style="fill:#3f4249;fill-rule:nonzero;"/><path d="M8812.29,8686.12c2.275,-2.254 3.667,-5.225 3.958,-8.4c0.279,-3.179 -0.571,-6.354 -2.396,-8.958c-0.937,-1.392 -2.166,-2.538 -3.608,-3.388c-1.425,-0.833 -3.037,-1.354 -4.704,-1.508c-1.65,-0.142 -3.317,0.083 -4.896,0.658c-1.562,0.571 -2.971,1.475 -4.15,2.675c-2.258,2.238 -3.662,5.209 -3.942,8.384c-0.295,3.179 0.555,6.354 2.38,8.975c0.937,1.371 2.17,2.516 3.608,3.371c1.442,0.833 3.042,1.354 4.708,1.508c1.667,0.137 3.334,-0.071 4.896,-0.642c1.563,-0.575 2.983,-1.491 4.146,-2.675Z" style="fill-opacity:0.5;fill-rule:nonzero;"/><path d="M8812.29,8676.2c0.158,-2.759 -0.658,-5.488 -2.308,-7.709c-1.65,-2.221 -4.025,-3.783 -6.717,-4.446l2.083,0c1.546,0 3.071,0.313 4.496,0.921c1.425,0.609 2.725,1.513 3.783,2.621c1.08,1.129 1.913,2.45 2.45,3.908c0.555,1.442 0.796,2.988 0.73,4.53c-0.071,3.195 -1.288,6.25 -3.421,8.612c-2.138,2.363 -5.054,3.871 -8.213,4.238l-2.429,-0c2.846,-0.609 5.363,-2.225 7.117,-4.55c1.754,-2.325 2.621,-5.209 2.429,-8.125Z" style="fill-opacity:0.4;fill-rule:nonzero;"/><path d="M8812.46,8689.58c3.679,-3.455 5.991,-8.105 6.491,-13.105c0.504,-5.02 -0.812,-10.054 -3.712,-14.15c-1.475,-1.891 -3.3,-3.454 -5.4,-4.6c-2.1,-1.145 -4.409,-1.858 -6.788,-2.066c-2.379,-0.209 -4.775,0.066 -7.05,0.833c-2.258,0.746 -4.341,1.963 -6.112,3.575c-3.729,3.421 -6.042,8.092 -6.525,13.125c-0.488,5.033 0.921,10.054 3.921,14.133c1.458,1.859 3.283,3.4 5.366,4.53c2.084,1.129 4.375,1.808 6.738,2.033c2.341,0.208 4.721,-0.071 6.979,-0.817c2.237,-0.729 4.321,-1.929 6.092,-3.491Z" style="fill-opacity:0.4;fill-rule:nonzero;"/><path d="M8815.92,8691.33c3.787,-3.384 6.167,-8.055 6.687,-13.092c0.5,-5.05 -0.887,-10.104 -3.908,-14.167c-1.458,-1.854 -3.279,-3.4 -5.362,-4.529c-2.084,-1.129 -4.375,-1.825 -6.738,-2.033c-2.362,-0.225 -4.742,0.054 -6.979,0.8c-2.258,0.746 -4.325,1.929 -6.096,3.508c-3.679,3.438 -5.987,8.088 -6.492,13.108c-0.52,5 0.8,10.034 3.717,14.146c1.458,1.859 3.296,3.404 5.363,4.534c2.083,1.129 4.375,1.82 6.737,2.029c2.363,0.208 4.738,-0.067 6.979,-0.796c2.259,-0.746 4.321,-1.946 6.092,-3.508Z" style="fill:#3f4249;fill-rule:nonzero;"/><path d="M8812.29,8686.12c2.275,-2.254 3.667,-5.225 3.958,-8.4c0.279,-3.179 -0.571,-6.354 -2.396,-8.958c-0.937,-1.392 -2.166,-2.538 -3.608,-3.388c-1.425,-0.833 -3.037,-1.354 -4.704,-1.508c-1.65,-0.142 -3.317,0.083 -4.896,0.658c-1.562,0.571 -2.971,1.475 -4.15,2.675c-2.258,2.238 -3.662,5.209 -3.942,8.384c-0.295,3.179 0.555,6.354 2.38,8.975c0.937,1.371 2.17,2.516 3.608,3.371c1.442,0.833 3.042,1.354 4.708,1.508c1.667,0.137 3.334,-0.071 4.896,-0.642c1.563,-0.575 2.983,-1.491 4.146,-2.675Z" style="fill-opacity:0.5;fill-rule:nonzero;"/><path d="M8812.29,8676.2c0.158,-2.759 -0.658,-5.488 -2.308,-7.709c-1.65,-2.221 -4.025,-3.783 -6.717,-4.446l2.083,0c1.546,0 3.071,0.313 4.496,0.921c1.425,0.609 2.725,1.513 3.783,2.621c1.08,1.129 1.913,2.45 2.45,3.908c0.555,1.442 0.796,2.988 0.73,4.53c-0.071,3.195 -1.288,6.25 -3.421,8.612c-2.138,2.363 -5.054,3.871 -8.213,4.238l-2.429,-0c2.846,-0.609 5.363,-2.225 7.117,-4.55c1.754,-2.325 2.621,-5.209 2.429,-8.125Z" style="fill-opacity:0.4;fill-rule:nonzero;"/><path d="M8609.67,5920.16c-1.733,0.121 -3.454,-0.4 -4.825,-1.442c-1.371,-1.058 -2.308,-2.587 -2.638,-4.287c-15,-77.588 -45.433,-151.371 -89.479,-216.979c-44.046,-65.609 -100.816,-121.705 -166.946,-164.967c-0.833,-0.467 -1.545,-1.075 -2.133,-1.821c-0.575,-0.75 -1.008,-1.617 -1.25,-2.521c-0.246,-0.9 -0.312,-1.854 -0.192,-2.791c0.105,-0.938 0.417,-1.842 0.884,-2.675c0.454,-0.817 1.079,-1.53 1.825,-2.117c0.746,-0.575 1.612,-1.008 2.516,-1.25c0.905,-0.246 1.859,-0.313 2.796,-0.208c0.938,0.12 1.838,0.433 2.671,0.883c67.813,44.254 126.063,101.65 171.304,168.804c45.225,67.15 76.546,142.708 92.067,222.167c0.192,0.921 0.208,1.858 0.033,2.779c-0.175,0.921 -0.521,1.804 -1.041,2.587c-0.521,0.763 -1.196,1.442 -1.98,1.946c-0.779,0.521 -1.65,0.867 -2.57,1.021l-1.042,0.871Z" style="fill-opacity:0.3;fill-rule:nonzero;"/><path d="M8843.38,7898.12l237.15,19.271l0,-34.721l-98.262,-957.291c-6.979,-66.98 -25.175,-132.292 -53.821,-193.23l-261.979,-705.729l-57.813,-130.033l13.021,45.658c28.125,122.571 45.488,296.179 34.725,386.804l9.025,48.959l127.083,479.687l50.871,1040.62Z" style="fill-opacity:0.2;fill-rule:nonzero;"/><path d="M10099.6,4087.16l-61.633,-29.342l-158.333,-79.687l-151.388,-0.867c-3.908,0.746 -7.362,2.971 -9.687,6.2c-2.33,3.229 -3.334,7.221 -2.813,11.162c1.388,17.359 9.025,43.23 42.013,37.5l-110.242,-10.766c-4.063,-0.329 -8.142,0.608 -11.65,2.691c-3.525,2.084 -6.304,5.209 -7.971,8.942l-4.167,9.55c-6.77,15.275 29.863,37.5 46.184,40.275l8.679,1.563l-97.396,-12.846c-2.379,0.312 -4.671,1.129 -6.717,2.396c-2.05,1.25 -3.82,2.916 -5.191,4.895c-1.371,1.98 -2.309,4.221 -2.779,6.58c-0.45,2.362 -0.417,4.775 0.104,7.137c1.354,11.283 5.329,22.117 11.633,31.596c6.25,3.471 -69.446,-2.779 -98.437,-5.033c-1.425,-0.175 -2.867,0.016 -4.205,0.504c-1.333,0.5 -2.55,1.3 -3.52,2.341c-0.992,1.042 -1.705,2.309 -2.121,3.68c-0.4,1.375 -0.484,2.812 -0.225,4.237c2.95,17.363 19.616,52.083 98.262,64.408c109.725,17.363 154.342,6.6 154.342,6.6l83.158,38.367l-12.5,51.217l-118.4,-22.225l-6.25,67.537c16.146,11.284 149.129,49.825 149.129,49.825c0,0 182.988,34.721 236.809,19.271c53.816,-15.45 93.229,-28.471 93.229,-28.471l167.187,-153.475l-215.104,-135.762Z" style="fill:#fc9d9d;fill-rule:nonzero;"/><path d="M9823.75,4221.87c0,0 104.167,-38.712 157.467,-99.825" style="fill:none;fill-rule:nonzero;stroke:#000;stroke-opacity:0.15;stroke-width:10.42px;"/><path d="M9680.88,4273.62l166.492,31.946c-0,0 86.804,-67.537 161.804,-35.937" style="fill:none;fill-rule:nonzero;stroke:#000;stroke-opacity:0.15;stroke-width:10.42px;"/><path d="M9586.59,4133.32c-0,0 114.929,17.363 164.754,-5.379c-0,0 18.925,34.721 80.904,43.4" style="fill:none;fill-rule:nonzero;stroke:#000;stroke-opacity:0.15;stroke-width:10.42px;"/><path d="M9678.79,4083.69c39.721,3.504 79.704,3.504 119.442,-0c22.395,26.837 52.833,45.762 86.808,53.992" style="fill:none;fill-rule:nonzero;stroke:#000;stroke-opacity:0.15;stroke-width:10.42px;"/><path d="M9744.42,4034.56c34.879,7.45 70.883,7.795 105.9,1.041l67.708,46.875" style="fill:none;fill-rule:nonzero;stroke:#000;stroke-opacity:0.15;stroke-width:10.42px;"/><path d="M9812.29,3982.32c-0.554,70.033 -8.229,139.842 -22.917,208.333l-7.812,36.109l-58.854,-27.084l1.041,-215.625l88.542,-1.733Z" style="fill-opacity:0.15;fill-rule:nonzero;"/><path d="M9794.92,4293.79l-0,86.804l-89.413,-30.554l13.021,-74.308l76.392,18.058Z" style="fill-opacity:0.15;fill-rule:nonzero;"/><path d="M11444.2,4993.75c20.487,194.1 -380.555,353.475 -380.555,353.475l-267.187,100l52.083,121.525l443.921,-221.525c238.542,-118.229 158.683,-336.633 151.738,-353.475Z" style="fill-opacity:0.15;fill-rule:nonzero;"/><path d="M10849.3,5568.75l-554.687,277.084l-59.375,-188.192l561.808,-210.417l52.254,121.525Z" style="fill-opacity:0.2;fill-rule:nonzero;"/><path d="M10294.6,5852.95c-1.542,0.033 -3.071,-0.455 -4.321,-1.355c-1.25,-0.904 -2.171,-2.204 -2.621,-3.683c-0,-2.775 -79.688,-267.533 -107.988,-324.129c-0.85,-1.738 -0.97,-3.717 -0.362,-5.538c0.625,-1.825 1.942,-3.333 3.662,-4.187c0.834,-0.417 1.755,-0.658 2.692,-0.708c0.938,-0.071 1.875,0.066 2.758,0.379c0.888,0.296 1.721,0.783 2.413,1.408c0.696,0.625 1.267,1.371 1.683,2.221c28.996,57.637 105.729,315.45 108.854,326.387c0.542,1.842 0.334,3.821 -0.57,5.521c-0.921,1.688 -2.467,2.954 -4.288,3.509l-1.912,0.175Z" style="fill-opacity:0.3;fill-rule:nonzero;"/><path d="M9553.09,7249.5c-1.58,-0.05 -3.109,-0.604 -4.359,-1.562c-1.25,-0.971 -2.15,-2.309 -2.587,-3.817c-0.259,-0.937 -0.329,-1.892 -0.209,-2.85c0.125,-0.954 0.438,-1.875 0.921,-2.687c0.488,-0.834 1.129,-1.546 1.913,-2.121c0.762,-0.571 1.646,-0.988 2.583,-1.196c2.954,-0 301.563,-83.683 441.667,-341.496c0.366,-0.971 0.937,-1.854 1.687,-2.583c0.746,-0.729 1.629,-1.288 2.604,-1.65c0.971,-0.367 2.013,-0.504 3.055,-0.434c1.041,0.084 2.05,0.38 2.966,0.884c0.904,0.504 1.704,1.179 2.329,2.012c0.625,0.834 1.059,1.792 1.284,2.813c0.225,1.008 0.225,2.066 0.016,3.091c-0.225,1.009 -0.658,1.963 -1.266,2.813c-143.229,263.367 -447.571,347.221 -451.388,348.437l-1.216,0.346Z" style="fill-opacity:0.3;fill-rule:nonzero;"/><path d="M8479.13,6994.79c-1.387,-0 -2.779,-1.733 -3.3,-4.513c-0.466,-1.595 -0.537,-3.279 -0.208,-4.912c0.333,-1.633 1.062,-3.158 2.121,-4.463c26.212,-22.22 79.337,-1.387 81.596,0c2.258,1.388 3.3,4.688 2.95,8.509c-0.346,3.816 -2.255,6.421 -4.338,5.729c-2.083,-0.696 -53.3,-21.008 -77.433,-0c-0.484,0.05 -0.988,-0.071 -1.388,-0.35Z" style="fill-opacity:0.15;fill-rule:nonzero;"/><path d="M8634.34,8289.08l106.595,181.941l66.496,156.25l-100.521,-25.171c0,0 -5.729,188.192 -59.895,211.63c-16.321,7.12 -65.28,-11.284 -60.246,-50.867c-7.167,6.787 -15.779,11.875 -25.188,14.879c-9.412,3.004 -19.375,3.854 -29.15,2.483c-30.208,-6.25 -37.5,-25.87 -34.725,-63.37c0,-0 -14.233,28.475 -56.25,10.766c-25.346,-10.766 -18.921,-48.958 -18.921,-48.958c0,-0 -45.833,3.992 -52.083,-19.792c-6.633,-38.837 -7.467,-78.458 -2.433,-117.537l27.433,-131.596l10.242,-85.071l228.646,-35.587Z" style="fill:#fc9d9d;fill-rule:nonzero;"/><path d="M8423.38,8679.37c7.779,-26.316 12.796,-53.366 14.929,-80.729" style="fill:none;fill-rule:nonzero;stroke:#000;stroke-opacity:0.15;stroke-width:10.58px;"/><path d="M8496.84,8715.5c9.825,-30.866 16.233,-62.708 19.116,-94.966" style="fill:none;fill-rule:nonzero;stroke:#000;stroke-opacity:0.15;stroke-width:10.58px;"/><path d="M8586.75,8763.04c10.888,-38.871 18.438,-78.592 22.571,-118.75" style="fill:none;fill-rule:nonzero;stroke:#000;stroke-opacity:0.15;stroke-width:10.58px;"/><path d="M8270.42,7470.87l-95.488,-458.333l4.167,-567.188l-72.742,-10.937l-6.945,517.708c-2.83,34.929 -0.121,70.067 7.987,104.167l74.479,435.417l221.179,856.941l-31.77,181.25l-5.555,35.938l1.909,68.404c1.908,48.783 21.354,42.187 21.354,42.187l-0,-123.612l48.958,-213.888l-167.533,-868.054Z" style="fill-opacity:0.15;fill-rule:nonzero;"/><path d="M8071.67,6434.04l55.037,-659.721c0,0 0,-289.062 202.255,-390.104l23.958,-7.467c-113.367,100.871 -117.879,274.829 -117.879,274.829l-55.904,794.271l-107.467,-11.808Z" style="fill-opacity:0.2;fill-rule:nonzero;"/><path d="M8897.34,4278.83l84.72,460.245l-15.275,427.605l240.105,90.275c79.233,29.67 162.308,47.9 246.7,54.166l12.675,0c11.804,0.767 23.629,-1.091 34.616,-5.45c11.009,-4.341 20.904,-11.075 28.992,-19.721c8.075,-8.629 14.15,-18.941 17.779,-30.208c3.613,-11.25 4.688,-23.179 3.158,-34.896l-33.679,-279.166l138.888,-4.342c4.741,0.258 9.5,0.258 14.237,-0c89.409,-5.033 139.759,-20.488 140.279,-166.146l-9.895,-174.825l50,-32.987c1.025,-0.538 1.962,-1.25 2.775,-2.084c6.354,-5.329 10.437,-12.9 11.375,-21.129c0.937,-8.246 -1.338,-16.546 -6.338,-23.142l-102.604,-124.133l-2.604,-9.2l2.429,-21.008c9.512,-88.317 -5.138,-177.534 -42.363,-258.159l-36.804,-78.82l-779.166,253.125Z" style="fill:#fc9d9d;fill-rule:nonzero;"/><path d="M9682.75,4137.51l-205.033,40.104c-97.225,69.446 54.337,174.479 -180.729,224.654c-4.342,26.908 30.554,132.467 -14.584,138.887c-34.725,8.509 -38.195,-38.712 -43.229,-62.15l-129.862,43.055c20.137,163.02 -38.196,206.945 -126.563,243.054c-130.554,-218.054 -414.062,-697.396 -30.383,-780.209c37.329,2.084 50.35,-39.929 60.767,-53.991c34.72,-92.534 197.395,-153.3 308.333,-112.675c38.125,24.308 81.629,38.891 126.683,42.5c45.071,3.596 90.329,-3.904 131.821,-21.838c210.417,-80.208 326.042,232.638 102.779,298.609Z" style="fill-rule:nonzero;"/><path d="M9287.13,4702.25l-44.966,-215.104c-2.238,-11.283 -6.684,-21.996 -13.092,-31.546c-6.421,-9.529 -14.65,-17.708 -24.25,-24.046c-9.583,-6.333 -20.35,-10.691 -31.65,-12.829c-11.288,-2.133 -22.9,-2.012 -34.133,0.367c-22.55,5.192 -42.188,18.992 -54.705,38.454c-12.516,19.446 -16.929,43.038 -12.308,65.713l8.854,42.533c4.479,22.533 13.4,43.958 26.234,63.021c12.829,19.062 29.304,35.383 48.487,48.021c19.183,12.658 40.696,21.354 63.263,25.641c22.587,4.271 45.783,4.013 68.266,-0.746l0,0.521Z" style="fill:#fc9d9d;fill-rule:nonzero;"/><path d="M9219.42,4539.58l-7.467,-35.763c-3.141,-14.95 -12.05,-28.037 -24.791,-36.458c-12.742,-8.421 -28.28,-11.475 -43.263,-8.509c-8.283,1.617 -16.112,5.055 -22.9,10.071c-6.787,5.017 -12.362,11.492 -16.337,18.925l-0,1.563c-0.746,1.579 -1.163,3.279 -1.234,5.016c-0.066,1.717 0.209,3.455 0.817,5.088c0.625,1.612 1.562,3.087 2.762,4.337c1.213,1.25 2.655,2.242 4.25,2.917c1.563,0.8 3.267,1.267 5.021,1.371c1.734,0.087 3.488,-0.171 5.121,-0.796c1.65,-0.625 3.125,-1.579 4.375,-2.812c1.25,-1.234 2.204,-2.725 2.846,-4.359c1.908,-4.446 4.896,-8.366 8.679,-11.387c3.788,-3.021 8.25,-5.071 13.021,-5.975c4.237,-0.884 8.596,-0.921 12.85,-0.121c4.233,0.8 8.279,2.429 11.892,4.808c3.629,2.379 6.737,5.434 9.15,9.013c2.429,3.575 4.129,7.604 5,11.821l7.462,35.937c0.904,3.333 2.988,6.217 5.871,8.092c2.879,1.891 6.354,2.654 9.754,2.154c1.546,-0.35 2.988,-1.063 4.238,-2.05c1.233,-1.008 2.22,-2.258 2.916,-3.7c0.679,-1.438 1.025,-3 1.025,-4.6c0,-1.579 -0.366,-3.142 -1.058,-4.583Z" style="fill:#21252b;fill-opacity:0.3;fill-rule:nonzero;"/><path d="M9536.09,5060.45l-137.85,-92.363c-2.725,-2.292 -4.825,-5.225 -6.125,-8.525c-1.305,-3.3 -1.771,-6.875 -1.338,-10.4c0.608,-5.521 3.383,-10.571 7.708,-14.062c4.321,-3.471 9.859,-5.105 15.38,-4.513l102.604,9.721l19.621,120.142Z" style="fill-opacity:0.15;fill-rule:nonzero;"/><path d="M9515.04,4944.95l-101.217,-14.409c-175.691,-5.729 -171.7,-443.404 -171.7,-443.404l60.938,-25c10.591,186.283 75.346,267.013 75.346,267.013c78.125,106.079 156.25,82.812 206.425,46.529c30.033,-21.875 52.95,-68.404 67.883,-102.779c44.792,-104.167 148.437,-59.896 148.437,-59.896l8.855,157.987c-0,145.659 -50.871,161.113 -140.28,166.146c-4.758,0.258 -9.495,0.258 -14.237,0" style="fill-rule:nonzero;"/><path d="M9051.5,4729.33l118.575,-42.709c-20.604,-13.925 -39.287,-30.504 -55.554,-49.304c-3.8,18.783 -11.321,36.613 -22.154,52.413c-10.833,15.816 -24.721,29.287 -40.867,39.6Z" style="fill-opacity:0.15;fill-rule:nonzero;"/><path d="M9690.59,4450.41c17.829,-3.263 29.325,-22.046 25.679,-41.942c-3.646,-19.916 -21.059,-33.387 -38.892,-30.125c-17.829,3.267 -29.321,22.05 -25.658,41.946c3.646,19.913 21.041,33.388 38.871,30.121Z" style="fill-rule:nonzero;"/><path d="M9698.92,4400.2c2.692,-0 4.862,-2.255 4.862,-5.034c0,-2.779 -2.17,-5.033 -4.862,-5.033c-2.675,-0 -4.863,2.254 -4.863,5.033c0,2.779 2.188,5.034 4.863,5.034Z" style="fill:#fff;fill-rule:nonzero;"/><path d="M9808.13,4709.04c-28.087,-1.129 -56.196,2.033 -83.333,9.375c-1.475,0.471 -3.054,0.417 -4.496,-0.154c-1.421,-0.559 -2.637,-1.6 -3.4,-2.917c-0.767,-1.337 -1.062,-2.9 -0.817,-4.429c0.225,-1.525 0.988,-2.917 2.117,-3.958c24.167,-24.409 54.742,-41.509 88.196,-49.305l1.733,51.388Z" style="fill:#fff;fill-rule:nonzero;"/><path d="M9735.54,4286.62c-1.913,7.467 -34.725,10.242 -73.438,21.009c-38.716,10.762 -67.708,24.825 -73.958,19.616c-2.779,-2.604 1.388,-10.241 12.846,-19.271c15.521,-11.82 33.212,-20.504 52.083,-25.52c19.342,-5.467 39.534,-7.342 59.55,-5.555c15.625,1.909 23.784,6.075 22.917,9.721Z" style="fill-rule:nonzero;"/><path d="M10849.3,4992.7c0,-0 91.496,82.291 160.938,117.016" style="fill:none;fill-rule:nonzero;stroke:#000;stroke-opacity:0.15;stroke-width:17.38px;"/><path d="M9162.63,10212.5c0,-0 119.792,-2.258 167.709,-43.925" style="fill:none;fill-rule:nonzero;stroke:#000;stroke-opacity:0.2;stroke-width:17.38px;stroke-linecap:butt;"/><path d="M10525.5,10208c-0,0 109.2,2.259 132.116,-22.046" style="fill:none;fill-rule:nonzero;stroke:#000;stroke-opacity:0.2;stroke-width:17.38px;stroke-linecap:butt;"/><path d="M8880,12380.7l80.038,-100.346l4.166,-1938.19l17.359,-597.046l-93.054,-13.021c-28.992,872.917 24.133,1779.17 -8.509,2648.61Z" style="fill-opacity:0.15;fill-rule:nonzero;"/><path d="M8930.67,8285.29l-5.208,-17.363c203.47,-63.02 254.166,-326.212 254.512,-328.816l17.363,3.125c-0.696,3.471 -53.125,276.733 -266.667,343.054Z" style="fill-opacity:0.3;fill-rule:nonzero;"/><path d="M16346.5,12538.4c0,0 -14.758,-414.412 214.584,-540.279c229.337,-125.867 1909.72,-192.362 1909.72,-192.362l820.659,569.966l-43.4,439.409l-2901.91,-0l0.35,-276.734Z" style="fill:#3f4249;fill-rule:nonzero;"/><path d="M15179.3,12815.1c-0,0 -3.125,-17.358 254.687,-292.533c257.813,-275.175 1357.12,-202.779 1460.94,-190.971c103.817,11.804 233.333,484.2 233.333,484.2l-1948.96,-0.696Z" style="fill:#868a91;fill-rule:nonzero;"/><rect x="7587.29" y="8814.2" width="116.321" height="1954.17" style="fill:#b2b6bb;"/><rect x="6679.79" y="8814.2" width="116.321" height="1954.17" style="fill:#b2b6bb;"/><path d="M7587.29,8814.45l116.321,-0l-0,201.562l-116.321,-12.675l-0,-188.887Zm-907.292,160.762l116.321,12.675l0,-173.612l-116.321,-0l0,160.937Z" style="fill-opacity:0.2;fill-rule:nonzero;"/><path d="M6682.92,8668.75l1017.53,0c15.263,0.192 29.809,6.409 40.488,17.313c10.675,10.9 16.596,25.587 16.458,40.85l0,80.729c0.138,15.258 -5.783,29.946 -16.458,40.85c-10.679,10.904 -25.225,17.117 -40.488,17.308l-173.612,0c-55.121,0.625 -109.425,-13.454 -157.292,-40.8c-54.946,-28.521 -115.954,-43.4 -177.862,-43.4c-61.909,0 -122.917,14.879 -177.867,43.4c-48.279,26.963 -102.879,40.504 -158.158,39.238l-173.613,-0c-7.55,-0.088 -15,-1.667 -21.942,-4.634c-6.929,-2.97 -13.212,-7.291 -18.491,-12.691c-5.275,-5.4 -9.425,-11.788 -12.221,-18.788c-2.813,-7.012 -4.2,-14.496 -4.117,-22.046l0,-79.862c0,-7.571 1.496,-15.05 4.396,-22.029c2.896,-6.979 7.15,-13.334 12.5,-18.667c5.346,-5.346 11.7,-9.562 18.696,-12.446c6.996,-2.883 14.479,-4.341 22.05,-4.325Z" style="fill:#21252b;fill-rule:nonzero;"/><path d="M6501.34,12608.7l1326.39,-0c53.488,-0 96.875,-43.371 96.875,-96.875l0,-2393.75c0,-53.492 -43.387,-96.875 -96.875,-96.875l-1326.39,-0c-53.505,-0 -96.875,43.383 -96.875,96.875l-0,2393.75c-0,53.504 43.37,96.875 96.875,96.875Z" style="fill:#969696;fill-rule:nonzero;"/><path d="M6501.34,12608.7l1326.39,-0c53.488,-0 96.875,-43.371 96.875,-96.875l0,-2393.75c0,-53.492 -43.387,-96.875 -96.875,-96.875l-1326.39,-0c-53.505,-0 -96.875,43.383 -96.875,96.875l-0,2393.75c-0,53.504 43.37,96.875 96.875,96.875Z" style="fill-opacity:0.2;fill-rule:nonzero;"/><path d="M7678.59,10021.2l-0,2587.5" style="fill:none;fill-rule:nonzero;stroke:#1656bd;stroke-width:24.67px;stroke-linecap:butt;"/><path d="M5961.04,12608.7l1326.39,-0c53.509,-0 96.875,-43.371 96.875,-96.875l0,-2393.75c0,-53.492 -43.366,-96.875 -96.875,-96.875l-1326.39,-0c-53.492,-0 -96.875,43.383 -96.875,96.875l-0,2393.75c-0,53.504 43.383,96.875 96.875,96.875Z" style="fill:#969696;fill-rule:nonzero;"/><rect x="7648.75" y="10021.2" width="24.654" height="2587.5" style="fill:#21252b;"/><rect x="7561.59" y="10714.6" width="198.783" height="88.717" style="fill:#fff;"/><rect x="7561.59" y="11826.6" width="198.783" height="88.717" style="fill:#fff;"/><path d="M7113.29,12404.2c13.317,-0 26.079,-5.296 35.487,-14.709c9.409,-9.408 14.688,-22.166 14.688,-35.466l-0,-2051.39c0.033,-6.6 -1.25,-13.146 -3.767,-19.254c-2.5,-6.113 -6.2,-11.667 -10.85,-16.338c-4.671,-4.687 -10.208,-8.387 -16.304,-10.92c-6.112,-2.534 -12.637,-3.838 -19.254,-3.838c-6.596,0 -13.142,1.304 -19.233,3.838c-6.096,2.533 -11.634,6.233 -16.305,10.92c-4.654,4.671 -8.35,10.225 -10.85,16.338c-2.516,6.108 -3.804,12.654 -3.783,19.254l0,2051.39c0,13.3 5.292,26.058 14.704,35.466c9.409,9.413 22.171,14.709 35.467,14.709Z" style="fill-opacity:0.3;fill-rule:nonzero;"/><path d="M6787.25,12404.2c13.317,-0 26.079,-5.296 35.488,-14.709c9.408,-9.408 14.687,-22.166 14.687,-35.466l0,-2051.39c0.034,-6.6 -1.25,-13.146 -3.766,-19.254c-2.517,-6.113 -6.2,-11.667 -10.871,-16.338c-4.65,-4.687 -10.188,-8.387 -16.3,-10.92c-6.096,-2.534 -12.621,-3.838 -19.238,-3.838c-6.596,0 -13.141,1.304 -19.233,3.838c-6.096,2.533 -11.633,6.233 -16.304,10.92c-4.654,4.671 -8.35,10.225 -10.867,16.338c-2.5,6.108 -3.787,12.654 -3.767,19.254l0,2051.39c0,13.3 5.292,26.058 14.705,35.466c9.408,9.413 22.17,14.709 35.466,14.709Z" style="fill-opacity:0.3;fill-rule:nonzero;"/><path d="M6461.59,12404.2c13.312,-0 26.075,-5.296 35.483,-14.709c9.412,-9.408 14.687,-22.166 14.687,-35.466l0,-2051.39c0.038,-6.6 -1.25,-13.146 -3.766,-19.254c-2.5,-6.113 -6.196,-11.667 -10.867,-16.338c-4.654,-4.687 -10.192,-8.387 -16.287,-10.92c-6.109,-2.534 -12.638,-3.838 -19.25,-3.838c-6.6,0 -13.146,1.304 -19.238,3.838c-6.096,2.533 -11.633,6.233 -16.304,10.92c-4.65,4.671 -8.35,10.225 -10.867,16.338c-2.5,6.108 -3.783,12.654 -3.766,19.254l-0,2051.39c-0,13.3 5.295,26.058 14.704,35.466c9.408,9.413 22.171,14.709 35.471,14.709Z" style="fill-opacity:0.3;fill-rule:nonzero;"/><path d="M6135.21,12404.2c6.583,-0 13.108,-1.305 19.204,-3.821c6.075,-2.517 11.612,-6.217 16.266,-10.888c4.655,-4.65 8.35,-10.171 10.884,-16.266c2.521,-6.092 3.821,-12.621 3.821,-19.2l-0,-2051.39c0.016,-6.6 -1.267,-13.146 -3.784,-19.254c-2.5,-6.113 -6.2,-11.667 -10.85,-16.338c-4.671,-4.687 -10.208,-8.387 -16.304,-10.92c-6.092,-2.534 -12.637,-3.838 -19.237,-3.838c-6.613,0 -13.142,1.304 -19.25,3.838c-6.096,2.533 -11.634,6.233 -16.288,10.92c-4.671,4.671 -8.367,10.225 -10.867,16.338c-2.516,6.108 -3.804,12.654 -3.766,19.254l-0,2051.39c-0,13.3 5.275,26.058 14.687,35.466c9.409,9.413 22.171,14.709 35.484,14.709Z" style="fill-opacity:0.3;fill-rule:nonzero;"/><path d="M6566.25,12826.4c57.046,-0 103.296,-46.25 103.296,-103.3c0,-57.05 -46.25,-103.3 -103.296,-103.3c-57.05,-0 -103.3,46.25 -103.3,103.3c0,57.05 46.25,103.3 103.3,103.3Z" style="fill:#3f4249;fill-rule:nonzero;"/><path d="M5953.25,12723.1c0,20.433 6.059,40.416 17.413,57.412c11.354,16.979 27.5,30.225 46.387,38.038c18.892,7.812 39.671,9.845 59.704,5.854c20.055,-3.996 38.459,-13.854 52.9,-28.317c14.43,-14.462 24.255,-32.883 28.23,-52.933c3.958,-20.054 1.891,-40.834 -5.955,-59.709c-7.845,-18.87 -21.112,-34.979 -38.125,-46.316c-17.012,-11.338 -36.995,-17.363 -57.429,-17.329c-13.558,-0 -26.979,2.675 -39.516,7.866c-12.517,5.192 -23.888,12.813 -33.471,22.396c-9.584,9.6 -17.171,20.988 -22.342,33.525c-5.175,12.533 -7.833,25.954 -7.796,39.513Z" style="fill:#3f4249;fill-rule:nonzero;"/><rect x="6056.54" y="12604.5" width="1671.01" height="67.533" style="fill:#21252b;"/><path d="M7623.21,12723.1c-0,20.4 6.041,40.329 17.362,57.308c11.304,16.962 27.396,30.208 46.217,38.037c18.816,7.85 39.546,9.95 59.566,6.025c20,-3.904 38.417,-13.662 52.896,-28.02c14.479,-14.359 24.375,-32.692 28.475,-52.671c4.079,-19.967 2.15,-40.713 -5.537,-59.604c-7.675,-18.888 -20.784,-35.084 -37.659,-46.542c-16.875,-11.458 -36.754,-17.658 -57.154,-17.833c-13.625,-0.105 -27.15,2.483 -39.791,7.625c-12.638,5.137 -24.13,12.725 -33.8,22.325c-9.688,9.6 -17.38,21.041 -22.621,33.629c-5.246,12.587 -7.954,26.091 -7.954,39.721Z" style="fill:#3f4249;fill-rule:nonzero;"/><path d="M7216.63,12826.4c57.05,-0 103.3,-46.25 103.3,-103.3c0,-57.05 -46.25,-103.3 -103.3,-103.3c-57.05,-0 -103.3,46.25 -103.3,103.3c0,57.05 46.25,103.3 103.3,103.3Z" style="fill:#3f4249;fill-rule:nonzero;"/><path d="M7216.63,12763.2c22.138,-0 40.104,-17.95 40.104,-40.105c0,-22.15 -17.966,-40.104 -40.104,-40.104c-22.154,0 -40.104,17.954 -40.104,40.104c0,22.155 17.95,40.105 40.104,40.105Z" style="fill:#868a91;fill-rule:nonzero;"/><path d="M7686.42,12723.1c-0,7.934 2.346,15.679 6.754,22.275c4.408,6.596 10.675,11.738 18.004,14.775c7.325,3.038 15.379,3.821 23.159,2.275c7.795,-1.546 14.929,-5.366 20.537,-10.975c5.608,-5.604 9.429,-12.758 10.975,-20.537c1.563,-7.775 0.763,-15.834 -2.275,-23.159c-3.037,-7.325 -8.179,-13.595 -14.775,-18.004c-6.596,-4.408 -14.342,-6.754 -22.275,-6.754c-10.642,0 -20.833,4.221 -28.367,11.738c-7.516,7.533 -11.737,17.725 -11.737,28.366Z" style="fill:#868a91;fill-rule:nonzero;"/><rect x="13319.4" y="4033.34" width="286.112" height="8785.58" style="fill:#b2b6bb;"/><path d="M13319.4,5297.25l286.283,-368.229l0,-895.662l-286.283,-0l-0,1263.89Z" style="fill-opacity:0.2;fill-rule:nonzero;"/><rect x="11479.1" y="2297.23" width="4140.62" height="1905.38" style="fill:#969696;"/><rect x="11479.1" y="2297.23" width="4140.62" height="1905.38" style="fill-opacity:0.2;"/><rect x="11491.5" y="2297.23" width="4041.32" height="1789.58" style="fill:#969696;"/><path d="M12814.7,3540.82l-132.988,0l0,228.821l-227.95,0l0,-228.821l-471.354,0l-0,-162.325l484.025,-712.846l215.104,0l0,694.442l132.988,0l0.175,180.729Zm-360.938,-181.075l0,-187.325c0,-31.25 1.267,-76.562 3.817,-135.937c2.433,-59.375 4.516,-93.925 5.904,-104.167l-5.904,0c-19.096,42.271 -41.613,82.917 -67.359,121.525l-202.258,305.904l265.8,0Z" style="fill:#fff;fill-rule:nonzero;"/><path d="M13821.1,3217.35c0,192.709 -31.596,335.417 -94.791,428.125c-63.192,92.709 -160.467,139.009 -291.838,138.888c-127.308,-0 -223.317,-47.796 -288.021,-143.4c-64.704,-95.592 -97.05,-236.808 -97.05,-423.613c0,-194.791 31.425,-338.366 94.271,-430.729c62.846,-92.362 159.775,-138.646 290.8,-138.887c127.308,-0 223.608,48.383 288.888,145.137c65.279,96.771 97.866,238.263 97.741,424.479Zm-539.929,0c0,135.417 11.579,232.467 34.721,291.146c23.146,58.679 62.554,87.967 118.229,87.846c54.396,0 93.629,-29.687 117.708,-89.062c24.084,-59.375 36.167,-156.005 36.288,-289.93c-0,-135.416 -12.204,-232.691 -36.633,-291.841c-24.305,-59.2 -63.542,-88.713 -117.363,-88.713c-53.817,0 -94.096,29.513 -117.879,88.713c-23.788,59.204 -35.071,156.771 -35.071,291.841Z" style="fill:#fff;fill-rule:nonzero;"/><path d="M14889.4,3540.82l-132.812,0l-0,228.821l-228.125,0l-0,-228.821l-471.179,0l-0,-162.325l484.029,-712.846l215.275,0l-0,694.442l132.812,0l0,180.729Zm-360.937,-181.075l-0,-187.325c-0,-31.25 1.271,-76.562 3.821,-135.937c2.604,-59.375 4.512,-93.925 6.075,-104.167l-6.075,0c-18.959,42.308 -41.442,82.967 -67.188,121.525l-202.429,305.904l265.796,0Z" style="fill:#fff;fill-rule:nonzero;"/><path d="M14569.2,2144.09l58.333,130.379c0.783,1.288 1.875,2.346 3.179,3.075c1.317,0.729 2.792,1.108 4.288,1.092l79.166,-0c27.604,-0 61.979,-5.9 64.929,33.333c0,10.938 17.363,11.113 17.363,0c-5.208,-69.442 -92.017,-50.346 -139.933,-50.346l-17.359,0c-9.204,0 4.688,7.988 1.563,0.867l-19.446,-43.75c-12.5,-27.775 -24.946,-55.554 -37.325,-83.333c-4.517,-9.896 -19.271,-1.213 -14.758,8.683Z" style="fill:#21252b;fill-rule:nonzero;"/><path d="M14635.5,2262.53c-44.792,0 -117.883,-14.237 -121.529,50.346c-0,11.113 17.362,11.113 17.362,0c1.213,-24.479 17.359,-33.333 38.888,-33.333l64.929,-0c2.312,-0 4.517,-0.921 6.146,-2.554c1.633,-1.629 2.537,-3.834 2.537,-6.125c0,-2.313 -0.904,-4.517 -2.537,-6.146c-1.629,-1.633 -3.834,-2.538 -6.146,-2.538" style="fill:#21252b;fill-rule:nonzero;"/><path d="M14130.5,1923.62c0,0 308.875,-282.467 411.825,-396.008c102.95,-113.542 235.05,-176.909 364.567,-139.929c129.512,36.979 213.712,179.512 168.921,359.029c-44.792,179.512 -252.429,443.4 -533.313,430.208c-280.904,-13.196 -372.587,-200.521 -412,-253.3Z" style="fill:#dadddf;fill-rule:nonzero;"/><path d="M14130.5,1923.62c0,0 308.875,-282.467 411.825,-396.008c102.95,-113.542 235.05,-176.909 364.567,-139.929c129.512,36.979 213.712,179.512 168.921,359.029c-44.792,179.512 -252.429,443.4 -533.313,430.208c-280.904,-13.196 -372.587,-200.521 -412,-253.3Z" style="fill-opacity:0.1;fill-rule:nonzero;"/><path d="M14225.5,2046.53c19.462,13.733 41.945,22.571 65.554,25.783c23.596,3.192 47.625,0.675 70.037,-7.379c0,-0 -40.8,45.137 31.596,54.167c72.396,9.025 221.529,-49.83 221.529,-49.83c0,0 -34.725,53.996 18.75,50.871c53.471,-3.125 165.45,-65.104 257.463,-159.375c92.016,-94.271 222.05,-245.312 140.279,-423.091c-65.625,-142.534 -273.958,-235.242 -571.008,97.395l-234.2,411.459Z" style="fill:#dadddf;fill-rule:nonzero;"/><path d="M14906.7,1387.68c-129.342,-36.98 -261.459,26.387 -364.584,139.929c-36.633,40.454 -99.654,102.433 -165.279,165.454l70.833,71.179l131.25,-98.783c0,-0 0,-105.384 86.809,-114.063c127.083,-12.5 107.983,248.609 420.833,111.979c4.513,-138.891 -72.396,-244.791 -180.904,-275.695" style="fill:#969696;fill-rule:nonzero;"/><path d="M14906.7,1387.68c-129.342,-36.98 -261.459,26.387 -364.584,139.929c-36.633,40.454 -99.654,102.433 -165.279,165.454l70.833,71.179l131.25,-98.783c0,-0 0,-105.384 86.809,-114.063c127.083,-12.5 107.983,248.609 420.833,111.979c4.513,-138.891 -72.396,-244.791 -180.904,-275.695" style="fill-opacity:0.2;fill-rule:nonzero;"/><path d="M14959.5,1604.19c0,8.383 -2.433,16.579 -7.121,23.542c-4.687,6.979 -11.283,12.396 -19.095,15.604c-7.813,3.196 -16.321,4.029 -24.48,2.379c-8.158,-1.65 -15.8,-5.692 -21.7,-11.65c-5.904,-5.937 -9.895,-13.504 -11.458,-21.733c-1.737,-8.213 -0.871,-16.738 2.429,-24.479c3.125,-7.746 8.679,-14.342 15.625,-18.975c6.946,-4.638 15.279,-7.084 23.613,-7.05c5.554,-0 11.108,1.091 16.146,3.229c5.208,2.116 9.895,5.241 13.712,9.183c3.996,3.942 7.121,8.613 9.204,13.75c2.084,5.138 3.125,10.642 3.125,16.2Z" style="fill-rule:nonzero;"/><path d="M15078.3,1572.4c0,0 87.846,43.58 89.754,61.459c1.913,17.883 -84.895,75.521 -84.895,75.521c-0,-0 -39.234,-83.505 -4.859,-136.98" style="fill:#3f4249;fill-rule:nonzero;"/><path d="M14529.6,2158.34l58.334,130.208c0.729,1.338 1.804,2.45 3.125,3.213c1.32,0.766 2.812,1.162 4.341,1.129l79.167,-0c27.775,-0 61.979,-5.904 64.929,33.333c0.867,10.938 17.363,10.938 17.363,0c-5.209,-69.446 -92.017,-50.521 -138.892,-50.521l-17.358,0c-9.375,0 4.512,7.988 1.387,1.042l-19.617,-43.75l-37.329,-83.333c-4.512,-10.071 -19.271,-1.388 -14.754,8.679" style="fill:#21252b;fill-rule:nonzero;"/><path d="M14595.5,2274.99c-44.792,-0 -117.709,-14.233 -121.53,50.521c0,11.112 17.363,10.937 17.363,-0c1.212,-24.479 17.358,-33.334 38.887,-33.334l64.93,0c2.291,0 4.516,-0.92 6.129,-2.533c1.633,-1.633 2.554,-3.837 2.554,-6.146c-0,-2.308 -0.921,-4.512 -2.554,-6.129c-1.613,-1.633 -3.838,-2.55 -6.129,-2.55" style="fill:#21252b;fill-rule:nonzero;"/><path d="M13961.6,2010.61c-0,-0 365.795,-309.721 458.854,-359.375c93.054,-49.65 244.616,-36.283 282.983,95.487c42.188,145.138 -102.429,403.821 -510.587,263.888l-123.092,192.883l-108.158,-192.883Z" style="fill:#969696;fill-rule:nonzero;"/><path d="M14214.9,1915.3c0,0 20.834,34.725 127.779,-50c0,0 -45.487,60.071 -8.508,69.446c36.979,9.375 136.458,-61.458 136.458,-61.458c0,-0 -50.691,50.346 -8.158,64.929c42.533,14.583 112.846,-47.396 128.821,-84.025c15.971,-36.633 50.867,-122.571 -18.579,-161.112c-69.442,-38.542 -189.063,6.77 -271.7,73.091c-82.638,66.317 -106.075,109.721 -86.804,149.129" style="fill:#fff;fill-opacity:0.2;fill-rule:nonzero;"/><path d="M14937.8,1600.89c-0,1.788 -0.521,3.558 -1.388,5.05c-1.041,1.513 -2.429,2.692 -3.991,3.404c-1.738,0.713 -3.475,0.921 -5.209,0.592c-1.912,-0.329 -3.475,-1.183 -4.687,-2.433c-1.392,-1.25 -2.258,-2.863 -2.604,-4.617c-0.35,-1.754 -0.175,-3.575 0.521,-5.242c0.691,-1.65 1.733,-3.075 3.295,-4.079c1.563,-0.992 3.3,-1.529 5.038,-1.529c2.429,-0 4.687,0.921 6.25,2.587c1.733,1.65 2.775,3.905 2.775,6.267" style="fill:#fff;fill-rule:nonzero;"/><path d="M16157.8,12143.9c-17.362,44.446 -33.508,89.062 -50.346,133.679c-0.695,1.338 -1.737,2.467 -2.954,3.283c-1.212,0.817 -2.604,1.3 -4.166,1.405l-78.992,4.862c-27.604,1.738 -62.325,-2.083 -62.846,37.325c0,10.938 -17.362,12.154 -17.362,1.042c-0,-69.442 88.541,-56.075 136.458,-59.025l17.362,-1.042c9.375,0 -3.995,8.158 -1.391,1.042l17.362,-44.967c10.592,-28.471 21.354,-56.946 32.117,-85.417c3.821,-10.241 19.1,-2.429 15.279,7.813" style="fill:#21252b;fill-rule:nonzero;"/><path d="M16099.3,12265.1c44.621,-2.775 116.667,-21.354 123.788,42.884c1.212,11.112 -15.8,11.979 -17.363,1.041c-2.779,-24.304 -19.446,-32.116 -40.971,-30.729l-64.758,3.992c-2.258,0.141 -4.512,-0.642 -6.25,-2.167c-1.737,-1.529 -2.779,-3.683 -2.95,-5.992c-0.175,-2.291 0.692,-4.566 2.083,-6.283c1.563,-1.721 3.817,-2.779 6.075,-2.917" style="fill:#21252b;fill-rule:nonzero;"/><path d="M16583.1,11896.5c0,-0 -325.866,-262.846 -435.587,-369.792c-109.725,-106.946 -245.488,-161.979 -372.225,-117.012c-126.734,44.962 -203.125,193.054 -147.046,368.75c56.075,175.691 279.512,426.908 558.854,396.525c279.338,-30.379 359.2,-223.263 395.483,-277.775" style="fill:#dadddf;fill-rule:nonzero;"/><path d="M16583.1,11896.5c0,-0 -325.866,-262.846 -435.587,-369.792c-109.725,-106.946 -245.488,-161.979 -372.225,-117.012c-126.734,44.962 -203.125,193.054 -147.046,368.75c56.075,175.691 279.512,426.908 558.854,396.525c279.338,-30.379 359.2,-223.263 395.483,-277.775" style="fill-opacity:0.1;fill-rule:nonzero;"/><path d="M16495.1,12025.2c-18.575,14.895 -40.45,25.087 -63.713,29.758c-23.437,4.654 -47.396,3.612 -70.312,-3.021c-0,0 43.4,42.533 -28.3,56.075c-71.7,13.542 -224.134,-35.937 -224.134,-35.937c0,-0 38.542,52.083 -15.45,52.083c-53.991,-0 -169.271,-54.513 -267.012,-143.054c-97.746,-88.542 -236.809,-231.075 -166.146,-413.542c56.771,-146.354 258.854,-251.908 576.042,61.804l259.025,395.834Z" style="fill:#dadddf;fill-rule:nonzero;"/><path d="M15774.6,11409.7c126.734,-44.967 262.325,10.241 372.221,117.012c39.063,38.196 105.729,96.179 175.346,155.033l-66.492,75.35l-137.154,-90.454c0,0 -6.075,-104.166 -94.442,-108.333c-127.604,-4.688 -92.537,254.687 -413.02,137.675c-13.196,-138.888 56.941,-248.613 163.541,-286.283" style="fill:#969696;fill-rule:nonzero;"/><path d="M15774.6,11409.7c126.734,-44.967 262.325,10.241 372.221,117.012c39.063,38.196 105.729,96.179 175.346,155.033l-66.492,75.35l-137.154,-90.454c0,0 -6.075,-104.166 -94.442,-108.333c-127.604,-4.688 -92.537,254.687 -413.02,137.675c-13.196,-138.888 56.941,-248.613 163.541,-286.283" style="fill-opacity:0.2;fill-rule:nonzero;"/><path d="M15735.2,11629c0.52,8.317 3.475,16.3 8.508,22.934c5.208,6.612 11.979,11.595 19.967,14.304c7.812,2.691 16.316,3.004 24.479,0.871c7.983,-2.138 15.275,-6.6 20.833,-12.85c5.379,-6.25 9.025,-13.992 10.067,-22.255c1.216,-8.266 -0.171,-16.666 -3.817,-24.166c-3.646,-7.484 -9.375,-13.734 -16.667,-17.938c-7.12,-4.216 -15.454,-6.196 -23.787,-5.691c-11.108,0.712 -21.525,5.833 -28.992,14.216c-7.466,8.404 -11.283,19.392 -10.591,30.575" style="fill-rule:nonzero;"/><path d="M15614.7,11604.7c-0,-0 -84.896,48.958 -85.767,66.837c-0.867,17.883 89.412,69.446 89.412,69.446c0,-0 34.721,-86.804 -3.645,-137.154" style="fill:#3f4249;fill-rule:nonzero;"/><path d="M16198.6,12154.9l-50.35,133.679c-0.692,1.355 -1.563,2.521 -2.95,3.355c-1.217,0.812 -2.605,1.283 -4.167,1.333l-78.821,4.862c-27.775,1.738 -62.325,-1.908 -63.021,37.325c0,10.938 -17.358,12.155 -17.358,1.042c1.042,-69.442 88.712,-56.075 136.458,-59.025l17.359,-1.042c9.204,0 -4.167,8.334 -1.388,1.042l17.363,-44.792l32.116,-85.416c3.821,-10.417 19.096,-2.604 15.279,7.637" style="fill:#21252b;fill-rule:nonzero;"/><path d="M16140,12276.1c44.792,-2.78 116.667,-21.355 123.783,43.054c1.217,10.937 -15.796,11.979 -17.358,1.041c-2.779,-24.479 -19.446,-32.308 -40.975,-30.92l-64.754,4.012c-2.259,0.121 -4.517,-0.662 -6.25,-2.187c-1.738,-1.53 -2.779,-3.684 -2.954,-5.975c-0.171,-2.309 0.695,-4.567 2.258,-6.3c1.387,-1.721 3.646,-2.78 5.904,-2.9" style="fill:#21252b;fill-rule:nonzero;"/><path d="M16756.7,11973.1c-0,0 -384.375,-286.629 -480.209,-329.858c-95.833,-43.229 -246.354,-21.008 -276.562,112.846c-33.159,147.571 127.258,396.875 525.866,231.946l134.725,184.72l96.18,-199.654Z" style="fill:#969696;fill-rule:nonzero;"/><path d="M16497.7,11893.7c-0,0 -18.575,36.459 -130.73,-42.012c0,-0 49.134,57.116 12.85,69.446c-36.287,12.325 -140.104,-52.084 -140.104,-52.084c0,0 53.817,47.046 12.15,64.234c-41.666,17.187 -115.45,-40.275 -133.679,-76.042c-18.229,-35.763 -58.333,-119.096 8.679,-161.804c67.017,-42.709 189.063,-5.034 275.521,56.075c86.458,61.112 112.85,102.954 95.313,143.579" style="fill:#fff;fill-opacity:0.2;fill-rule:nonzero;"/><path d="M15756.7,11624.5c0.695,1.859 1.908,3.475 3.47,4.567c1.738,1.096 3.646,1.617 5.559,1.512c2.083,-0.12 3.816,-0.887 5.379,-2.17c1.562,-1.284 2.604,-3.021 2.954,-4.95c0.346,-1.355 0.346,-2.775 0,-4.113c-0.35,-1.354 -1.042,-2.604 -1.912,-3.662c-1.042,-1.059 -2.084,-1.892 -3.471,-2.434c-1.217,-0.554 -2.604,-0.779 -3.992,-0.708c-1.392,0.083 -2.779,0.5 -3.996,1.179c-1.212,0.696 -2.254,1.667 -2.95,2.813c-0.696,1.162 -1.216,2.483 -1.387,3.87c-0.175,1.371 -0.175,2.78 0.346,4.096" style="fill:#fff;fill-rule:nonzero;"/><path d="M13007.6,12097.7c-72.221,-86.808 -154.338,-171.875 -217.188,-265.104c-13.887,-20.662 -85.937,-152.954 -26.387,-136.808c59.55,16.146 111.979,116.146 137.154,164.758c25.171,48.613 52.083,97.05 75.171,146.7c11.791,21.217 21.616,43.475 29.341,66.496c0,2.95 6.946,29.687 1.909,23.958c-54.338,-64.758 9.029,10.588 -0,0Z" style="fill:#4d61fc;fill-rule:nonzero;"/><path d="M13298.8,12818.1c-0.866,-30.73 -5.537,-61.234 -13.887,-90.8c-17.396,-60.017 -44.809,-116.65 -81.075,-167.534c-75.696,-108.679 -181.079,-211.112 -306.771,-257.812c-29.117,-11.304 -59.479,-19.063 -90.454,-23.092c-14.584,-1.562 -59.721,-8.504 -71.004,4.342c-11.288,12.846 2.95,10.071 14.062,14.758c22.171,9.913 43.525,21.525 63.888,34.721c190.97,117.362 416.666,254.512 467.187,486.112l18.054,-0.695Z" style="fill:#969696;fill-rule:nonzero;"/><path d="M13298.8,12818.1c-0.866,-30.73 -5.537,-61.234 -13.887,-90.8c-17.396,-60.017 -44.809,-116.65 -81.075,-167.534c-75.696,-108.679 -181.079,-211.112 -306.771,-257.812c-29.117,-11.304 -59.479,-19.063 -90.454,-23.092c-14.584,-1.562 -59.721,-8.504 -71.004,4.342c-11.288,12.846 2.95,10.071 14.062,14.758c22.171,9.913 43.525,21.525 63.888,34.721c190.97,117.362 416.666,254.512 467.187,486.112l18.054,-0.695Z" style="fill-opacity:0.2;fill-rule:nonzero;"/><path d="M13340.4,12818.1c-10.938,-177.605 -63.713,-348.613 -121.525,-515.8c-26.217,-76.042 -52.083,-153.125 -84.725,-226.909c-39.408,-89.237 -87.671,-175.871 -134.896,-260.416c-22.396,-40.28 -45.483,-80.038 -70.483,-118.75c-11.288,-17.363 -22.917,-34.725 -34.725,-52.084c-4.859,-6.425 -28.125,-28.125 -28.296,-35.766c-0,-11.284 10.587,-1.909 17.358,1.912c15.817,10 30.854,21.213 44.967,33.504c34.079,29.896 65.225,62.988 93.054,98.788c60.246,75.504 109.621,159.062 146.704,248.262c34.046,88.559 63.421,178.838 88.021,270.488c32.067,105.625 57.358,213.191 75.692,322.046c7.954,48.75 13.404,97.9 16.321,147.225c1.041,20.833 1.387,41.666 1.216,62.5c0,5.033 2.254,19.616 0,23.437c-1.912,-0.175 -7.987,12.325 -8.683,1.563Z" style="fill:#969696;fill-rule:nonzero;"/><path d="M13340.4,12818.1c-10.938,-177.605 -63.713,-348.613 -121.525,-515.8c-26.217,-76.042 -52.083,-153.125 -84.725,-226.909c-39.408,-89.237 -87.671,-175.871 -134.896,-260.416c-22.396,-40.28 -45.483,-80.038 -70.483,-118.75c-11.288,-17.363 -22.917,-34.725 -34.725,-52.084c-4.859,-6.425 -28.125,-28.125 -28.296,-35.766c-0,-11.284 10.587,-1.909 17.358,1.912c15.817,10 30.854,21.213 44.967,33.504c34.079,29.896 65.225,62.988 93.054,98.788c60.246,75.504 109.621,159.062 146.704,248.262c34.046,88.559 63.421,178.838 88.021,270.488c32.067,105.625 57.358,213.191 75.692,322.046c7.954,48.75 13.404,97.9 16.321,147.225c1.041,20.833 1.387,41.666 1.216,62.5c0,5.033 2.254,19.616 0,23.437c-1.912,-0.175 -7.987,12.325 -8.683,1.563Z" style="fill-opacity:0.2;fill-rule:nonzero;"/><path d="M13334.5,12818.1l14.584,-0c-0,-9.725 -1.913,-19.967 -2.259,-27.605c-1.754,-43.004 -6.216,-85.85 -13.366,-128.3c-14.95,-92.691 -42.692,-182.845 -82.467,-267.883c-74.133,-156.25 -183.508,-298.087 -337.5,-380.208c-14.583,-7.638 -185.763,-83.504 -190.971,-60.417c-2.954,11.113 56.25,43.404 65.625,50.175c30.379,22.05 60.417,44.967 89.583,69.446c128.296,104.167 251.563,219.096 332.463,364.583c63.092,118.609 105.142,247.238 124.308,380.209Z" style="fill:#969696;fill-rule:nonzero;"/><path d="M13415.3,12818l6.942,-0l-0,-33.508c-0,-31.425 -0,-62.846 -1.388,-94.271c-1.737,-70.659 -5.208,-141.492 -11.804,-211.804c-11.808,-129.688 -25.696,-259.03 -70.662,-381.946c-10.104,-28.3 -21.7,-56.059 -34.721,-83.142c-2.429,-4.687 -20.313,-45.85 -25.867,-37.692c-1.912,2.95 2.429,18.405 2.95,21.875c1.909,11.805 3.992,23.613 5.904,34.721c4.859,28.646 9.896,57.121 15.275,85.592c23.788,127.604 55.038,253.646 74.83,381.946c15.97,106.075 27.95,211.979 38.541,318.229Z" style="fill:#969696;fill-rule:nonzero;"/><path d="M13415.3,12818l6.942,-0l-0,-33.508c-0,-31.425 -0,-62.846 -1.388,-94.271c-1.737,-70.659 -5.208,-141.492 -11.804,-211.804c-11.808,-129.688 -25.696,-259.03 -70.662,-381.946c-10.104,-28.3 -21.7,-56.059 -34.721,-83.142c-2.429,-4.687 -20.313,-45.85 -25.867,-37.692c-1.912,2.95 2.429,18.405 2.95,21.875c1.909,11.805 3.992,23.613 5.904,34.721c4.859,28.646 9.896,57.121 15.275,85.592c23.788,127.604 55.038,253.646 74.83,381.946c15.97,106.075 27.95,211.979 38.541,318.229Z" style="fill:#fff;fill-opacity:0.2;fill-rule:nonzero;"/><path d="M13526.5,12452.1c-8.904,-73.925 -6.196,-148.787 7.988,-221.875c6.3,-43.266 16.771,-85.833 31.25,-127.083c15.866,-38.579 36.075,-75.208 60.241,-109.204c9.375,-13.888 18.75,-27.775 27.78,-41.838c2.604,-4.166 17.358,-34.725 21.004,-34.725c15.8,-1.733 -2.254,69.446 -5.379,80.384c-12.813,39.029 -29.863,76.508 -50.871,111.804c-21.021,37.796 -37.188,78.108 -48.088,119.966c-12.554,43.455 -22.762,87.55 -30.558,132.117c-3.296,19.967 -5.9,39.933 -7.292,60.071c0.959,7.9 0.959,15.883 0,23.783c0.35,-3.296 -5.033,18.925 -6.075,6.6Z" style="fill:#969696;fill-rule:nonzero;"/><path d="M13526.5,12452.1c-8.904,-73.925 -6.196,-148.787 7.988,-221.875c6.3,-43.266 16.771,-85.833 31.25,-127.083c15.866,-38.579 36.075,-75.208 60.241,-109.204c9.375,-13.888 18.75,-27.775 27.78,-41.838c2.604,-4.166 17.358,-34.725 21.004,-34.725c15.8,-1.733 -2.254,69.446 -5.379,80.384c-12.813,39.029 -29.863,76.508 -50.871,111.804c-21.021,37.796 -37.188,78.108 -48.088,119.966c-12.554,43.455 -22.762,87.55 -30.558,132.117c-3.296,19.967 -5.9,39.933 -7.292,60.071c0.959,7.9 0.959,15.883 0,23.783c0.35,-3.296 -5.033,18.925 -6.075,6.6Z" style="fill-opacity:0.2;fill-rule:nonzero;"/><path d="M13484.7,11863.2c3.3,33.162 5.729,66.495 8.333,99.829c11.459,149.479 17.363,299.479 15.625,449.129c-1.733,121.529 -5.208,279.342 -1.562,406.425l11.633,-0l0,-60.592c2.083,-37.15 3.471,-88.191 6.25,-125.171c6.596,-83.683 14.583,-167.016 20.313,-250.695c9.895,-145.138 18.75,-290.8 -12.675,-434.03c-6.717,-31.891 -15.484,-63.333 -26.213,-94.095c-5.208,-14.93 -11.112,-29.513 -17.362,-43.925c-1.563,-3.471 -6.25,-20.484 -11.284,-14.755c-5.037,5.73 1.042,18.921 1.563,23.263c2.083,14.408 3.991,29.167 5.379,44.617Z" style="fill:#969696;fill-rule:nonzero;"/><path d="M13601.9,12835.4c7.988,-69.442 17.363,-160.763 23.788,-192.533c18.229,-92.363 39.233,-184.03 63.887,-274.825c39.584,-145.663 100.521,-286.809 162.5,-424.134c16.146,-35.762 32.292,-71.7 49.304,-107.116c4.517,-9.03 34.725,-58.855 17.363,-57.988c-8.679,0 -30.033,25.346 -36.979,31.771c-14.238,13.092 -27.725,26.946 -40.45,41.492c-25.054,27.708 -47.763,57.433 -67.9,88.891c-85.417,132.813 -119.079,286.459 -147.9,439.584c-25.121,150.57 -41.754,302.429 -49.825,454.858l26.212,-0Z" style="fill:#969696;fill-rule:nonzero;"/><path d="M14308.8,11663.9c-17.363,-1.392 -47.396,14.754 -62.5,21.004c-20.85,8.492 -41.25,18.058 -61.113,28.646c-37.983,20.471 -74.166,44.117 -108.158,70.662c-166.667,129.167 -263.887,320.138 -343.925,510.763c-62.15,148.092 -135.067,364.583 -138.887,540.45l18.575,-0l-0,-20.138c1.737,-22.62 4.862,-45.12 9.375,-67.362c11.025,-54.392 26.112,-107.896 45.141,-160.067c39.65,-108.021 86.459,-213.283 140.104,-315.104c95.484,-181.771 220.971,-346.112 371.18,-486.112c36.112,-34.721 74.304,-65.971 113.541,-96.355c12.325,-9.029 42.884,-24.304 16.667,-26.387Z" style="fill:#969696;fill-rule:nonzero;"/><path d="M14308.8,11663.9c-17.363,-1.392 -47.396,14.754 -62.5,21.004c-20.85,8.492 -41.25,18.058 -61.113,28.646c-37.983,20.471 -74.166,44.117 -108.158,70.662c-166.667,129.167 -263.887,320.138 -343.925,510.763c-62.15,148.092 -135.067,364.583 -138.887,540.45l18.575,-0l-0,-20.138c1.737,-22.62 4.862,-45.12 9.375,-67.362c11.025,-54.392 26.112,-107.896 45.141,-160.067c39.65,-108.021 86.459,-213.283 140.104,-315.104c95.484,-181.771 220.971,-346.112 371.18,-486.112c36.112,-34.721 74.304,-65.971 113.541,-96.355c12.325,-9.029 42.884,-24.304 16.667,-26.387Z" style="fill:#fff;fill-opacity:0.2;fill-rule:nonzero;"/><path d="M14313.5,12179.9c-10.937,-14.583 -76.387,-7.133 -91.666,-5.746c-27.621,2.917 -54.863,8.734 -81.25,17.363c-147.05,46.7 -257.467,163.192 -350.867,281.075c-74.308,93.75 -154.688,236.3 -187.675,363.037l22.396,0c3.646,-16.091 8.158,-31.979 13.541,-47.57c16.25,-36.996 35.713,-72.5 58.159,-106.092c45.558,-68.717 97.9,-132.692 156.25,-190.971c102.85,-102.587 220.608,-189.029 349.308,-256.408c27.171,-14.479 55.363,-26.892 84.375,-37.154c7.638,-2.775 36.108,-5.73 27.429,-17.534Z" style="fill:#969696;fill-rule:nonzero;"/><path d="M14313.5,12179.9c-10.937,-14.583 -76.387,-7.133 -91.666,-5.746c-27.621,2.917 -54.863,8.734 -81.25,17.363c-147.05,46.7 -257.467,163.192 -350.867,281.075c-74.308,93.75 -154.688,236.3 -187.675,363.037l22.396,0c3.646,-16.091 8.158,-31.979 13.541,-47.57c16.25,-36.996 35.713,-72.5 58.159,-106.092c45.558,-68.717 97.9,-132.692 156.25,-190.971c102.85,-102.587 220.608,-189.029 349.308,-256.408c27.171,-14.479 55.363,-26.892 84.375,-37.154c7.638,-2.775 36.108,-5.73 27.429,-17.534Z" style="fill-opacity:0.2;fill-rule:nonzero;"/><path d="M18170.3,12852.7c0,0 -156.25,-50.696 -172.396,-340.8c-13.195,-231.421 -185.416,-149.825 -310.416,-316.837c-142.534,-190.975 -17.363,-275.175 -112.154,-493.059c-58.505,-134.545 -233.334,-59.375 -248.784,-372.045c-15.45,-312.675 -48.437,-376.217 -114.408,-503.475c-0,-0 184.025,223.091 329.858,309.375c135.592,80.729 161.459,54.862 247.225,115.104c102.604,71.875 34.721,192.708 138.888,271.704c104.166,78.992 201.562,47.567 276.737,151.733c131.25,181.425 41.146,312.5 142.534,431.425c101.387,118.925 281.075,117.534 410.591,328.125c77.084,125.259 104.688,274.775 77.254,419.271l-664.929,-0.521Z" style="fill:#969696;fill-rule:nonzero;"/><path d="M18545.4,12852.8l-925.696,-1340.8" style="fill:none;fill-rule:nonzero;stroke:#000;stroke-width:10.58px;stroke-linejoin:round;stroke-miterlimit:4;"/><path d="M17811.6,11979.3l271.004,203.125" style="fill:none;fill-rule:nonzero;stroke:#000;stroke-width:10.58px;stroke-linejoin:round;stroke-miterlimit:4;"/><path d="M17822.5,11599.5l33.679,255.209" style="fill:none;fill-rule:nonzero;stroke:#000;stroke-width:10.58px;stroke-linejoin:round;stroke-miterlimit:4;"/><path d="M18368.3,12336.6l46.525,327.067" style="fill:none;fill-rule:nonzero;stroke:#000;stroke-width:10.58px;stroke-linejoin:round;stroke-miterlimit:4;"/><path d="M18593.3,12852.8c-0,-0 -197.746,-474.654 -178.475,-796.179c19.27,-321.529 116.32,-397.571 64.412,-632.642c-51.912,-235.067 -243.058,-293.575 -162.85,-597.917c80.208,-304.337 196.183,-352.429 173.613,-1006.94c-0,-0 82.812,473.608 298.437,749.129c184.2,235.417 259.2,297.571 190.971,728.125c-62.325,396.529 42.017,454.342 149.133,616.321c107.117,161.979 171.179,582.987 34.721,939.237l-569.962,0.867Z" style="fill:#969696;fill-rule:nonzero;"/><path d="M18593.3,12852.8c-0,-0 -197.746,-474.654 -178.475,-796.179c19.27,-321.529 116.32,-397.571 64.412,-632.642c-51.912,-235.067 -243.058,-293.575 -162.85,-597.917c80.208,-304.337 196.183,-352.429 173.613,-1006.94c-0,-0 82.812,473.608 298.437,749.129c184.2,235.417 259.2,297.571 190.971,728.125c-62.325,396.529 42.017,454.342 149.133,616.321c107.117,161.979 171.179,582.987 34.721,939.237l-569.962,0.867Z" style="fill:#fff;fill-opacity:0.3;fill-rule:nonzero;"/><path d="M18575.5,10488.4c-0,-0 138.887,318.229 135.416,847.917c-2.779,503.47 61.804,1128.47 228.821,1516.49" style="fill:none;fill-rule:nonzero;stroke:#000;stroke-width:10.58px;stroke-linejoin:round;stroke-miterlimit:4;"/><path d="M18440.8,10856.2c0,0 169.096,148.438 267.013,325.35" style="fill:none;fill-rule:nonzero;stroke:#000;stroke-width:10.58px;stroke-linejoin:round;stroke-miterlimit:4;"/><path d="M18818.3,11181.8c-0,-0 2.429,166.842 -102.78,423.612" style="fill:none;fill-rule:nonzero;stroke:#000;stroke-width:10.58px;stroke-linejoin:round;stroke-miterlimit:4;"/><path d="M18544.9,11895.3c15.971,61.545 43.921,119.341 82.292,170c38.366,50.662 86.458,93.195 141.491,125.141" style="fill:none;fill-rule:nonzero;stroke:#000;stroke-width:10.58px;stroke-linejoin:round;stroke-miterlimit:4;"/><path d="M19206.7,11488.5c-0,-0 -76.388,-184.025 138.887,-552.254c215.279,-368.229 422.917,-476.738 503.475,-429.688c113.192,65.275 -109.204,850.692 -642.362,981.942Z" style="fill:#969696;fill-rule:nonzero;"/><path d="M19091.8,11860.8c73.608,-244.617 115.625,-484.55 343.229,-756.075" style="fill:none;fill-rule:nonzero;stroke:#000;stroke-width:10.58px;stroke-linejoin:round;stroke-miterlimit:4;"/><path d="M19445.8,12538.9c-0,-0 -111.804,-166.842 -33.158,-626.738c78.645,-459.895 212.15,-648.087 312.5,-625.866c108.333,24.304 170.137,913.716 -279.342,1252.6Z" style="fill:#969696;fill-rule:nonzero;"/><path d="M19315.8,12852.8c0,-0 201.909,-343.229 220.138,-857.988" style="fill:none;fill-rule:nonzero;stroke:#000;stroke-width:10.58px;stroke-linejoin:round;stroke-miterlimit:4;"/><path d="M5443.17,12655.9c-0,0 9.721,-275.346 -142.708,-359.029c-152.43,-83.679 -1269.45,-127.775 -1269.45,-127.775l-545.138,378.646l28.821,292.012l1928.65,0l-0.175,-183.854Z" style="fill:#3f4249;fill-rule:nonzero;"/><path d="M4834.34,12800.7c4.862,-40.8 10.416,-95.313 14.062,-114.063c10.938,-54.687 23.438,-109.2 38.021,-163.021c25.433,-86.179 57.604,-170.225 96.179,-251.387c9.55,-21.184 19.1,-42.363 29.342,-63.371c2.604,-5.379 20.312,-34.721 10.416,-34.721c-5.208,0 -17.362,14.929 -21.875,18.75c-8.42,7.796 -16.425,16.025 -23.958,24.654c-14.862,16.213 -28.333,33.629 -40.279,52.084c-50.521,78.816 -70.658,169.791 -87.671,260.416c-14.933,89.254 -24.792,179.271 -29.517,269.617l15.28,1.042Z" style="fill:#969696;fill-rule:nonzero;"/><path d="M5253.59,12106.2c-12.967,1.946 -25.488,6.184 -36.98,12.5c-12.395,5.159 -24.495,10.938 -36.283,17.363c-22.517,12.083 -43.942,26.075 -64.062,41.841c-98.788,76.563 -156.25,189.755 -203.821,302.775c-36.979,87.5 -80.209,215.8 -82.813,319.967l10.938,0l-0,-11.979c1.266,-13.488 3.404,-26.892 6.425,-40.104c6.546,-32.221 15.483,-63.904 26.733,-94.792c23.438,-64.062 51.167,-126.475 82.988,-186.804c56.666,-107.5 131.025,-204.688 219.966,-287.5c21.525,-20.313 44.096,-39.238 67.359,-57.292c6.77,-5.729 24.829,-14.758 9.55,-15.975Z" style="fill:#969696;fill-rule:nonzero;"/><path d="M5253.59,12106.2c-12.967,1.946 -25.488,6.184 -36.98,12.5c-12.395,5.159 -24.495,10.938 -36.283,17.363c-22.517,12.083 -43.942,26.075 -64.062,41.841c-98.788,76.563 -156.25,189.755 -203.821,302.775c-36.979,87.5 -80.209,215.8 -82.813,319.967l10.938,0l-0,-11.979c1.266,-13.488 3.404,-26.892 6.425,-40.104c6.546,-32.221 15.483,-63.904 26.733,-94.792c23.438,-64.062 51.167,-126.475 82.988,-186.804c56.666,-107.5 131.025,-204.688 219.966,-287.5c21.525,-20.313 44.096,-39.238 67.359,-57.292c6.77,-5.729 24.829,-14.758 9.55,-15.975Z" style="fill:#fff;fill-opacity:0.2;fill-rule:nonzero;"/><path d="M5256.21,12412.1c-6.425,-8.679 -45.313,-4.341 -54.342,-3.471c-16.404,1.684 -32.583,5.105 -48.263,10.242c-86.804,27.604 -152.604,96.7 -208.333,166.667c-50.296,63.975 -87.9,136.996 -110.762,215.104l12.5,-0c2.17,-9.513 4.825,-18.888 7.983,-28.125c9.758,-21.963 21.375,-43.038 34.725,-63.021c26.925,-40.575 57.812,-78.367 92.187,-112.846c60.971,-60.854 130.796,-112.137 207.117,-152.083c16.129,-8.508 32.846,-15.871 50,-22.05c5.383,-1.738 22.221,-3.821 17.188,-10.417Z" style="fill:#969696;fill-rule:nonzero;"/><path d="M5256.21,12412.1c-6.425,-8.679 -45.313,-4.341 -54.342,-3.471c-16.404,1.684 -32.583,5.105 -48.263,10.242c-86.804,27.604 -152.604,96.7 -208.333,166.667c-50.296,63.975 -87.9,136.996 -110.762,215.104l12.5,-0c2.17,-9.513 4.825,-18.888 7.983,-28.125c9.758,-21.963 21.375,-43.038 34.725,-63.021c26.925,-40.575 57.812,-78.367 92.187,-112.846c60.971,-60.854 130.796,-112.137 207.117,-152.083c16.129,-8.508 32.846,-15.871 50,-22.05c5.383,-1.738 22.221,-3.821 17.188,-10.417Z" style="fill-opacity:0.2;fill-rule:nonzero;"/><path d="M4308.79,12335c-0,-0 183.854,-90.45 328.471,-440.625c119.271,-288.367 83.683,-458.508 19.966,-483.854c-89.062,-35.071 -514.408,558.333 -348.437,924.479Z" style="fill:#969696;fill-rule:nonzero;"/><path d="M4308.79,12335c-0,-0 183.854,-90.45 328.471,-440.625c119.271,-288.367 83.683,-458.508 19.966,-483.854c-89.062,-35.071 -514.408,558.333 -348.437,924.479Z" style="fill-opacity:0.15;fill-rule:nonzero;"/><path d="M4219.21,12458c108.508,-134.721 251.908,-378.3 305.554,-631.771" style="fill:none;fill-rule:nonzero;stroke:#000;stroke-width:10.58px;stroke-linejoin:round;stroke-miterlimit:4;"/><path d="M3983.46,11668.6c-0,-0 199.65,-46.355 419.962,-354.517c181.6,-253.817 185.592,-427.604 129.342,-466.667c-78.125,-54.166 -627.084,427.084 -549.304,821.184Z" style="fill:#969696;fill-rule:nonzero;"/><path d="M3983.46,11668.6c-0,-0 199.65,-46.355 419.962,-354.517c181.6,-253.817 185.592,-427.604 129.342,-466.667c-78.125,-54.166 -627.084,427.084 -549.304,821.184Z" style="fill-opacity:0.15;fill-rule:nonzero;"/><path d="M3926.86,11872c4.687,-239.929 221.875,-419.446 395.662,-631.771" style="fill:none;fill-rule:nonzero;stroke:#000;stroke-width:10.58px;stroke-linejoin:round;stroke-miterlimit:4;"/><path d="M3701.17,11637.5c-0,-0 -204.863,-1.913 -487.154,-254.517c-232.467,-208.333 -274.134,-377.083 -227.779,-427.429c63.891,-70.487 704.341,279.863 714.933,681.946Z" style="fill:#969696;fill-rule:nonzero;"/><path d="M3701.17,11637.5c-0,-0 -204.863,-1.913 -487.154,-254.517c-232.467,-208.333 -274.134,-377.083 -227.779,-427.429c63.891,-70.487 704.341,279.863 714.933,681.946Z" style="fill-opacity:0.15;fill-rule:nonzero;"/><path d="M3875.82,11754.7c-0,-0 -263.542,-134.546 -501.042,-463.192" style="fill:none;fill-rule:nonzero;stroke:#000;stroke-width:10.58px;stroke-linejoin:round;stroke-miterlimit:4;"/><path d="M3935.89,12112.7c-0,-0 -167.534,117.883 -544.096,77.083c-310.417,-33.679 -442.538,-146.529 -434.029,-214.583c11.283,-94.617 735.937,-182.988 978.125,137.5Z" style="fill:#969696;fill-rule:nonzero;"/><path d="M3935.89,12112.7c-0,-0 -167.534,117.883 -544.096,77.083c-310.417,-33.679 -442.538,-146.529 -434.029,-214.583c11.283,-94.617 735.937,-182.988 978.125,137.5Z" style="fill-opacity:0.15;fill-rule:nonzero;"/><path d="M4125.47,12242c-152.258,-139.758 -305.554,-198.783 -655.729,-220.138" style="fill:none;fill-rule:nonzero;stroke:#000;stroke-width:10.58px;stroke-linejoin:round;stroke-miterlimit:4;"/><path d="M3772.17,11147.2c0,0 -128.817,-159.375 -113.192,-538.196c12.846,-312.5 116.492,-451.387 185.067,-447.566c94.792,5.554 231.771,722.741 -71.875,985.762Z" style="fill:#969696;fill-rule:nonzero;"/><path d="M3772.17,11147.2c0,0 -128.817,-159.375 -113.192,-538.196c12.846,-312.5 116.492,-451.387 185.067,-447.566c94.792,5.554 231.771,722.741 -71.875,985.762Z" style="fill-opacity:0.15;fill-rule:nonzero;"/><path d="M4219.21,12655.4c20.07,-97.587 9.15,-199.029 -31.25,-290.104c-117.534,-253.992 -329.863,-528.125 -379.863,-852.95c-18.75,-122.746 -79.512,-443.75 23.613,-836.287" style="fill:none;fill-rule:nonzero;stroke:#000;stroke-width:10.58px;stroke-linejoin:round;stroke-miterlimit:4;"/><path d="M5159.5,12835.4c0,-0 1.734,-11.283 -132.812,-194.442c-134.55,-183.162 -708.334,-134.725 -762.5,-127.258c-54.167,7.467 -121.529,321.7 -121.529,321.7l1016.84,-0Z" style="fill:#868a91;fill-rule:nonzero;"/><path d="M4546.13,3141.85c0,0 201.913,27.604 1130.38,8.334c251.041,152.429 1339.41,55.554 1768.4,15.104c496.004,92.012 741.146,-148.263 520.833,-277.779c-67.883,-40.105 -180.208,-69.442 -343.058,-75.692c10.591,-516.321 -1266.32,-685.592 -1622.05,67.708c-188.371,-152.433 -581.079,-138.891 -607.642,67.709c-363.366,-66.496 -650.346,8.679 -781.25,86.804c-68.575,41.841 -94.616,84.375 -65.625,107.812Z" style="fill:#fff;fill-rule:nonzero;"/><path d="M4546.13,3141.85c0,0 201.913,27.604 1130.38,8.334c251.041,152.429 1339.41,55.554 1768.4,15.104c496.004,92.012 741.146,-148.263 520.833,-277.779c1.65,32.329 -9.375,64.045 -30.729,88.37c-50.35,57.463 -144.967,81.25 -231.6,74.13c-86.629,-7.117 -165.45,-40.971 -238.542,-80.555c-34.721,-18.75 -69.441,-39.408 -111.458,-43.404c-73.608,-7.116 -136.979,39.238 -188.713,82.121c-42.537,-69.446 -150.52,-106.079 -241.32,-83.333c-90.8,22.741 -153.821,102.95 -140.625,179.337c-177.605,-31.771 -358.68,53.125 -539.759,39.584c-206.596,-15.45 -392.708,-157.117 -595.137,-121.525c-52.084,9.2 -98.784,29.166 -150.175,37.845c-51.092,6.025 -102.638,7.363 -153.992,3.992c-165.279,-2.95 -330.729,18.229 -495.833,9.896c-79.879,-3.4 -159.009,-16.75 -235.592,-39.754c-69.096,41.666 -95.137,84.2 -66.146,107.637Z" style="fill:#21252b;fill-opacity:0.08;fill-rule:nonzero;"/><path d="M18701.2,3526.76c-0,-0 -160.938,22.05 -900.175,6.771c-199.825,121.529 -1066.49,44.27 -1408.16,11.979c-394.967,73.266 -590.28,-118.054 -414.934,-221.354c54.167,-31.942 143.579,-55.38 273.267,-60.242c-8.508,-411.113 1008.33,-546.008 1291.67,53.821c149.825,-121.529 462.67,-110.246 483.333,54.166c289.233,-53.125 517.708,6.771 622.221,69.442c55.208,32.988 75.866,66.842 52.779,85.417Z" style="fill:#fff;fill-rule:nonzero;"/><path d="M18701.2,3526.74c-0,0 -160.938,22.05 -900.175,6.771c-199.825,121.529 -1066.49,44.271 -1408.16,11.979c-394.967,73.263 -590.28,-118.054 -414.934,-221.354c-1.212,25.729 7.467,50.921 24.479,70.312c40.105,45.834 115.455,64.93 184.55,59.03c67.363,-7.934 132.467,-29.688 190.971,-63.892c26.913,-17.479 57.121,-29.304 88.717,-34.721c58.508,-5.729 109.029,31.25 150.175,65.45c34.721,-54.858 119.792,-84.546 192.187,-66.492c72.396,18.055 121.525,82.117 111.98,142.884c141.491,-25.35 285.762,42.358 429.687,31.596c164.583,-12.5 312.5,-125.175 474.129,-96.53c40.8,7.121 78.475,23.267 119.446,30.038c40.625,4.754 81.771,5.867 122.571,3.296c131.596,-2.429 263.367,14.412 394.962,7.812c63.542,-2.708 126.563,-13.333 187.5,-31.596c54.342,32.988 75,66.842 51.913,85.417Z" style="fill:#21252b;fill-opacity:0.08;fill-rule:nonzero;"/><path d="M20504.6,12879.2l-18077.4,-0c-3.767,0.625 -7.642,0.417 -11.321,-0.604c-3.696,-1.025 -7.117,-2.85 -10.034,-5.334c-2.916,-2.462 -5.245,-5.554 -6.858,-9.025c-1.617,-3.475 -2.45,-7.258 -2.45,-11.079c0,-3.816 0.833,-7.604 2.45,-11.075c1.613,-3.471 3.942,-6.562 6.858,-9.029c2.917,-2.479 6.338,-4.304 10.034,-5.329c3.679,-1.025 7.554,-1.233 11.321,-0.608l18077.4,-0c3.821,-0.625 7.638,-0.417 11.284,0.608c3.82,1.025 7.12,2.85 10.07,5.329c2.95,2.467 5.209,5.558 6.946,9.029c1.563,3.471 2.429,7.259 2.429,11.075c0,3.821 -0.866,7.604 -2.429,11.079c-1.737,3.471 -3.996,6.563 -6.946,9.025c-2.95,2.484 -6.25,4.309 -10.07,5.334c-3.646,1.021 -7.463,1.229 -11.284,0.604Z" style="fill:#b2b6bb;fill-rule:nonzero;"/><path d="M8521.84,4217.16l-250.696,-131.771c3.908,-115.137 -35.5,-227.567 -110.434,-315.104c-74.929,-87.517 -179.945,-143.783 -294.32,-157.692c-114.375,-13.904 -229.809,15.575 -323.525,82.604c-93.717,67.034 -158.888,166.755 -182.692,279.48c-23.8,112.745 -4.479,230.295 54.133,329.5c58.629,99.183 152.292,172.791 262.534,206.316c110.225,33.525 229.029,24.496 332.933,-25.258c103.925,-49.775 185.417,-136.683 228.387,-243.596l283.68,-24.479Z" style="fill:#fff;fill-rule:nonzero;"/><path d="M7811.79,4539.58c-65.313,-0.555 -129.775,-14.755 -189.254,-41.684c-59.496,-26.908 -112.709,-65.971 -156.234,-114.654c-43.508,-48.696 -76.37,-105.937 -96.475,-168.071c-20.104,-62.116 -27.016,-127.762 -20.279,-192.708c6.754,-64.967 26.979,-127.779 59.429,-184.463c32.43,-56.666 76.355,-105.937 128.938,-144.654c52.587,-38.712 112.692,-66.004 176.442,-80.137c63.75,-14.134 129.758,-14.792 193.766,-1.925c106.913,22.55 202.571,81.733 270.471,167.325c67.9,85.591 103.767,192.204 101.404,301.425l272.05,143.229l-307.812,26.908c-35.313,85.642 -95.259,158.871 -172.259,210.4c-76.995,51.525 -167.55,79.025 -260.187,79.009Zm-0,-921.18c-81.896,0.121 -162.208,22.517 -232.346,64.792c-70.121,42.275 -127.446,102.829 -165.8,175.175c-38.35,72.358 -56.3,153.767 -51.925,235.538c4.375,81.77 30.904,160.816 76.771,228.662c45.85,67.846 109.304,121.925 183.542,156.475c74.237,34.55 156.491,48.246 237.916,39.638c81.442,-8.613 158.992,-39.221 224.359,-88.542c65.379,-49.308 116.091,-115.488 146.733,-191.425l1.929,-4.863l259.529,-22.741l-229.321,-120.659l0,-5.037c3.509,-106.025 -30.433,-209.896 -95.85,-293.383c-65.433,-83.492 -158.179,-141.288 -261.979,-163.213c-31.008,-6.825 -62.675,-10.329 -94.446,-10.417l0.888,0Z" style="fill:#b2b6bb;fill-rule:nonzero;"/><path d="M7746.29,4189.58l-1.217,-25.521c-1.437,-20.121 2.521,-40.242 11.459,-58.334c12.52,-21.3 29.237,-39.841 49.133,-54.512c17.325,-12.533 32.762,-27.517 45.833,-44.446c7.067,-10.917 10.471,-23.817 9.721,-36.804c0.104,-6.563 -1.421,-13.054 -4.458,-18.871c-3.021,-5.817 -7.467,-10.8 -12.9,-14.462c-14.254,-7.967 -30.642,-11.3 -46.875,-9.55c-41.392,3.837 -81.288,17.329 -116.496,39.412l-41.146,-73.612c47.779,-30.225 102.554,-47.638 159.029,-50.521c40.417,-4.079 80.992,6.058 114.759,28.646c14.095,10.225 25.625,23.595 33.629,39.062c8.021,15.471 12.325,32.588 12.55,50c1.737,23.054 -3.142,46.113 -14.063,66.492c-16.65,25.416 -37.846,47.537 -62.5,65.279c-15.137,11.146 -28.646,24.342 -40.104,39.237c-5.883,10.259 -8.421,22.084 -7.292,33.855l1.042,20.833l-90.104,3.817Zm-5.383,118.579c-0.938,-7.971 -0.209,-16.042 2.12,-23.717c2.325,-7.692 6.213,-14.792 11.421,-20.904c11.946,-11.404 27.917,-17.638 44.446,-17.358c16.163,-1.738 32.379,2.933 45.138,13.02c10.8,11.667 17.137,26.788 17.866,42.671c0.729,15.888 -4.183,31.529 -13.871,44.134c-5.729,5.679 -12.537,10.12 -20.037,13.108c-7.479,2.987 -15.483,4.425 -23.542,4.254c-16.316,1.771 -32.654,-2.971 -45.483,-13.196c-5.938,-5.362 -10.679,-11.891 -13.925,-19.183c-3.263,-7.292 -4.967,-15.192 -5,-23.179l0.867,0.35Z" style="fill:#969696;fill-rule:nonzero;"/></svg>